<svg width="123" height="48" viewBox="0 0 123 48" fill="none" xmlns="http://www.w3.org/2000/svg">
<path fill-rule="evenodd" clip-rule="evenodd" d="M4 24.4353L4.00193 24.2349L4.00591 24.0344L4.01195 23.8339L4.02004 23.6334L4.0302 23.4329L4.04241 23.2324L4.05669 23.032L4.07302 22.8316L4.09142 22.6313L4.11188 22.431L4.1344 22.231L4.15897 22.031L4.18561 21.8312L4.21431 21.6316L4.24506 21.4322L4.27787 21.2331L4.31274 21.0341L4.34965 20.8355L4.38862 20.6371L4.42964 20.439L4.47271 20.2412L4.51781 20.0438L4.56497 19.8468L4.61415 19.6501L4.66538 19.4539L4.71863 19.258L4.77392 19.0626L4.83123 18.8677L4.89056 18.6733L4.9519 18.4794L5.01526 18.286L5.08063 18.0931L5.148 17.9008L5.21736 17.7091L5.28872 17.518L5.36206 17.3275L5.43739 17.1377L5.51469 16.9485L5.59396 16.7601L5.67519 16.5723L5.75838 16.3852L5.84352 16.1989L5.9306 16.0134L6.01962 15.8286L6.11057 15.6446L6.20344 15.4615L6.29822 15.2792L6.39491 15.0977L6.49349 14.9172L6.59396 14.7375L6.69632 14.5587L6.80054 14.3809L6.90663 14.204L7.01457 14.0281L7.12436 13.8532L7.23598 13.6793L7.34943 13.5065L7.4647 13.3346L7.58177 13.1639L7.70064 12.9942L7.82129 12.8256L7.94371 12.6582L8.0679 12.4918L8.19384 12.3267L8.32153 12.1627L8.45094 11.9998L8.58207 11.8382L8.71491 11.6779L8.84944 11.5187L8.98566 11.3608L9.12355 11.2042L9.26309 11.0489L9.40428 10.8949L9.54711 10.7422L9.69155 10.5909L9.8376 10.4409L9.98524 10.2923L10.1345 10.1451L10.2852 9.99926L10.4376 9.85487L10.5915 9.71193L10.7469 9.57043L10.9038 9.43041L11.0622 9.29187L11.2221 9.15482L11.3834 9.0193L11.5462 8.88531L11.7105 8.75286L11.8761 8.62197L12.0432 8.49265L12.2116 8.36493L12.3815 8.2388L12.5527 8.1143L12.7252 7.99143L12.899 7.8702L13.0742 7.75063L13.2506 7.63272L13.4283 7.51651L13.6073 7.40199L13.7876 7.28919L13.969 7.17811L14.1517 7.06876L14.3355 6.96117L14.5205 6.85534L14.7067 6.75128L14.894 6.64901L15.0824 6.54853L15.2719 6.44987L15.4625 6.35302L15.6542 6.25801L15.8469 6.16484L16.0407 6.07352L16.2354 5.98407L16.4312 5.8965L16.6279 5.81081L16.8256 5.72702L17.0242 5.64514L17.2237 5.56517L17.4241 5.48712L17.6254 5.41102L17.8275 5.33685L18.0305 5.26465L18.2343 5.1944L18.4389 5.12612L18.6442 5.05983L18.8503 4.99552L19.0572 4.93321L19.2648 4.87291L19.473 4.81462L19.682 4.75834L19.8916 4.70409L20.1018 4.65188L20.3126 4.60172L20.5241 4.55359L20.7361 4.50753L20.9486 4.46352L21.1617 4.42158L21.3753 4.38172L21.5894 4.34393L21.804 4.30823L22.019 4.27462L22.2344 4.2431L22.4502 4.21369L22.6664 4.18638L22.883 4.16118L23.0999 4.13808L23.3171 4.11712L23.5346 4.09827L23.7524 4.08154L23.9704 4.06695L25.1428 4L25.2097 9.64867L25.248 9.64823L25.4099 9.648L25.5718 9.64936L25.7337 9.65231L25.8958 9.65686L26.0578 9.663L26.2199 9.67072L26.382 9.68005L26.5441 9.69098L26.7061 9.70349L26.8682 9.71761L27.0301 9.73333L27.192 9.75065L27.3537 9.76956L27.5154 9.79007L27.6769 9.81218L27.8383 9.83588L27.9995 9.86119L28.1606 9.88809L28.3214 9.91658L28.4821 9.94667L28.6425 9.97835L28.8026 10.0116L28.9626 10.0465L29.1222 10.0829L29.2815 10.121L29.4406 10.1606L29.5993 10.2018L29.7576 10.2446L29.9156 10.2889L30.0733 10.3349L30.2305 10.3824L30.3873 10.4314L30.5437 10.4821L30.6997 10.5343L30.8552 10.588L31.0102 10.6433L31.1648 10.7002L31.3188 10.7586L31.4723 10.8185L31.6253 10.88L31.7777 10.9431L31.9295 11.0076L32.0808 11.0737L32.2315 11.1412L32.3815 11.2104L32.5309 11.2809L32.6797 11.3531L32.8278 11.4267L32.9752 11.5018L33.1219 11.5784L33.2679 11.6564L33.4132 11.736L33.5577 11.8169L33.7015 11.8994L33.8445 11.9833L33.9867 12.0687L34.1281 12.1555L34.2687 12.2437L34.4084 12.3334L34.5473 12.4244L34.6853 12.5169L34.8225 12.6108L34.9587 12.706L35.0941 12.8027L35.2285 12.9007L35.3619 13.0001L35.4945 13.1009L35.626 13.203L35.7566 13.3065L35.8861 13.4112L36.0147 13.5173L36.1422 13.6248L36.2687 13.7335L36.3942 13.8435L36.5186 13.9548L36.6418 14.0674L36.764 14.1813L36.8851 14.2964L37.0051 14.4127L37.1239 14.5303L37.2416 14.6491L37.3581 14.7692L37.4735 14.8904L37.5876 15.0128L37.7006 15.1364L37.8123 15.2612L37.9228 15.3871L38.0321 15.5142L38.1401 15.6424L38.2469 15.7717L38.3524 15.9022L38.4566 16.0337L38.5595 16.1663L38.6611 16.3L38.7614 16.4348L38.8603 16.5706L38.9579 16.7075L39.0541 16.8454L39.149 16.9842L39.2425 17.1241L39.3346 17.265L39.4253 17.4069L39.5145 17.5497L39.6024 17.6934L39.6888 17.8381L39.7738 17.9837L39.8573 18.1302L39.9394 18.2776L40.02 18.4259L40.0991 18.575L40.1767 18.725L40.2528 18.8758L40.3274 19.0274L40.4005 19.1799L40.4721 19.3331L40.5421 19.4871L40.6106 19.6419L40.6775 19.7974L40.7428 19.9537L40.8066 20.1106L40.8688 20.2683L40.9294 20.4266L40.9884 20.5857L41.0458 20.7453L41.1016 20.9057L41.1558 21.0666L41.2084 21.2282L41.2593 21.3903L41.3086 21.553L41.3562 21.7163L41.4022 21.8801L41.4465 22.0445L41.4892 22.2094L41.5301 22.3747L41.5695 22.5406L41.6071 22.7069L41.643 22.8737L41.6773 23.0408L41.7098 23.2085L41.7406 23.3765L41.7698 23.5449L41.7972 23.7136L41.8229 23.8827L41.8469 24.0522L41.8691 24.2219L41.8896 24.392L41.9084 24.5623L41.9254 24.7329L41.9407 24.9037L41.9543 25.0748L41.9661 25.2461L41.9761 25.4176L41.9844 25.5892L41.991 25.7611L41.9957 25.933L41.9988 26.1051L42 26.2773L41.9995 26.4496L41.9972 26.622L41.9931 26.7945L41.9873 26.9669L41.9797 27.1394L41.9704 27.3119L41.9592 27.4844L41.9463 27.6569L41.9316 27.8293L41.9151 28.0017L41.8969 28.174L41.8768 28.3461L41.855 28.5182L41.8315 28.6901L41.8061 28.8619L41.779 29.0335L41.7501 29.2049L41.7194 29.3761L41.687 29.5471L41.6528 29.7179L41.6168 29.8884L41.579 30.0586L41.5395 30.2286L41.4983 30.3982L41.4552 30.5675L41.4104 30.7364L41.3639 30.905L41.3156 31.0732L41.2656 31.241L41.2138 31.4085L41.1602 31.5754L41.105 31.742L41.048 31.908L40.9892 32.0736L40.9288 32.2387L40.8666 32.4032L40.8027 32.5672L40.7371 32.7307L40.6698 32.8936L40.6008 33.0559L40.5301 33.2177L40.4577 33.3787L40.3836 33.5392L40.3078 33.699L40.2304 33.8581L40.1512 34.0166L40.0705 34.1743L39.988 34.3314L39.904 34.4876L39.8182 34.6432L39.7309 34.7979L39.6419 34.9519L39.5513 35.1051L39.4591 35.2574L39.3653 35.409L39.2698 35.5596L39.1728 35.7094L39.0743 35.8583L38.9741 36.0063L38.8724 36.1534L38.7691 36.2996L38.6643 36.4448L38.5579 36.5891L38.45 36.7324L38.3406 36.8747L38.2297 37.0159L38.1173 37.1562L38.0034 37.2954L37.888 37.4335L37.7711 37.5706L37.6528 37.7066L37.533 37.8415L37.4118 37.9753L37.2892 38.108L37.1652 38.2395L37.0397 38.3699L36.9129 38.499L36.7846 38.627L36.655 38.7538L36.5241 38.8794L36.3918 39.0038L36.2582 39.1269L36.1232 39.2488L35.9869 39.3693L35.8494 39.4886L35.7105 39.6067L35.5704 39.7234L35.429 39.8387L35.2864 39.9528L35.1425 40.0655L34.9974 40.1768L34.8511 40.2867L34.7036 40.3953L34.555 40.5025L34.4051 40.6082L34.2541 40.7126L34.102 40.8155L33.9488 40.9169L33.7944 41.0169L33.639 41.1155L33.4825 41.2125L33.3249 41.3081L33.1662 41.4021L33.0065 41.4947L32.8459 41.5857L32.6841 41.6751L32.5215 41.7631L32.3578 41.8494L32.1932 41.9342L32.0276 42.0175L31.8611 42.0991L31.6937 42.1791L31.5254 42.2576L31.3562 42.3344L31.1862 42.4096L31.0153 42.4831L30.8436 42.555L30.6711 42.6253L30.4978 42.6939L30.3237 42.7608L30.1488 42.8261L29.9732 42.8896L29.7968 42.9515L29.6198 43.0116L29.4421 43.0701L29.2636 43.1268L29.0845 43.1818L28.9048 43.2351L28.7245 43.2866L28.5435 43.3364L28.362 43.3845L28.1798 43.4307L27.9972 43.4752L27.814 43.518L27.6302 43.5589L27.446 43.5981L27.2613 43.6355L27.0761 43.6711L26.8905 43.7049L26.7045 43.7368L26.518 43.767L26.3312 43.7954L26.1439 43.8219L25.9564 43.8466L25.7685 43.8695L25.5802 43.8905L25.3917 43.9097L25.2029 43.9271L25.0139 43.9426L24.8246 43.9563L24.6351 43.9681L24.4453 43.9781L24.2554 43.9862L24.0654 43.9924L23.8751 43.9968L23.6848 43.9993L23.4943 44L23.3038 43.9988L23.1132 43.9957L22.9225 43.9908L22.7318 43.9839L22.5411 43.9752L22.3504 43.9647L22.1598 43.9522L21.9691 43.9379L21.7786 43.9217L21.5881 43.9036L21.3977 43.8837L21.2075 43.8619L21.0174 43.8382L20.8274 43.8126L20.6377 43.7851L20.4481 43.7558L20.2588 43.7246L20.0697 43.6916L19.8808 43.6566L19.6923 43.6198L19.504 43.5812L19.3161 43.5406L19.1284 43.4982L18.9412 43.454L18.7543 43.4079L18.5678 43.3599L18.3817 43.3101L18.1961 43.2585L18.0109 43.205L17.8261 43.1497L17.6419 43.0925L17.4582 43.0335L17.275 42.9727L17.0923 42.91L16.9102 42.8455L16.7287 42.7793L16.5478 42.7112L16.3675 42.6413L16.1879 42.5696L16.0089 42.4961L15.8306 42.4208L15.653 42.3438L15.4761 42.265L15.2999 42.1844L15.1245 42.102L14.9499 42.0179L14.7761 41.932L14.603 41.8444L14.4308 41.7551L14.2595 41.664L14.0889 41.5713L13.9193 41.4768L13.7506 41.3806L13.5828 41.2827L13.4159 41.1831L13.25 41.0819L13.085 40.9789L12.921 40.8744L12.7581 40.7681L12.5961 40.6603L12.4352 40.5507L12.2754 40.4396L12.1166 40.3269L11.9589 40.2125L11.8023 40.0966L11.6469 39.979L11.4926 39.8599L11.3394 39.7393L11.1874 39.617L11.0366 39.4933L10.887 39.368L10.7387 39.2412L10.5915 39.1129L10.4457 38.983L10.3011 38.8517L10.1578 38.719L10.0157 38.5847L9.87504 38.4491L9.73568 38.3119L9.59766 38.1734L9.46101 38.0335L9.32574 37.8921L9.19186 37.7494L9.05939 37.6053L8.92835 37.4598L8.79874 37.313L8.67058 37.1649L8.54389 37.0154L8.41868 36.8647L8.29497 36.7126L8.17276 36.5593L8.05208 36.4047L7.93293 36.2489L7.81533 36.0918L7.69929 35.9335L7.58483 35.774L7.47195 35.6133L7.36068 35.4515L7.25102 35.2885L7.14299 35.1243L7.0366 34.9591L6.93185 34.7927L6.82877 34.6252L6.72737 34.4567L6.62765 34.287L6.52964 34.1164L6.43333 33.9447L6.33874 33.772L6.24589 33.5982L6.15477 33.4235L6.06542 33.2479L5.97782 33.0713L5.89201 32.8938L5.80798 32.7153L5.72574 32.536L5.64531 32.3557L5.56669 32.1747L5.4899 31.9927L5.41495 31.81L5.34183 31.6264L5.27057 31.442L5.20118 31.2569L5.13365 31.071L5.068 30.8844L5.00423 30.6971L4.94236 30.509L4.8824 30.3203L4.82434 30.1309L4.76821 29.9409L4.714 29.7502L4.66172 29.5589L4.61138 29.3671L4.56299 29.1747L4.51655 28.9817L4.47208 28.7882L4.42957 28.5941L4.38903 28.3996L4.35047 28.2046L4.31389 28.0092L4.2793 27.8133L4.24671 27.617L4.21611 27.4203L4.18752 27.2232L4.16094 27.0257L4.13638 26.8279L4.11383 26.6298L4.0933 26.4314L4.0748 26.2328L4.05833 26.0338L4.04389 25.8346L4.03149 25.6352L4.02113 25.4356L4.01281 25.2358L4.00653 25.0359L4.0023 24.8358L4.00013 24.6356L4 24.4353ZM23.3781 9.76699L23.3325 5.91679L23.2892 5.92097L23.0904 5.94213L22.8921 5.96521L22.6939 5.99025L22.4965 6.01715L22.2993 6.04601L22.1023 6.0768L21.9059 6.10948L21.7097 6.14411L21.5145 6.18054L21.319 6.21901L21.1249 6.25921L20.9305 6.30144L20.7371 6.34546L20.5439 6.39144L20.3516 6.43918L20.1598 6.48884L19.9685 6.54035L19.7778 6.59372L19.588 6.64888L19.3985 6.70594L19.21 6.76477L19.022 6.82547L18.835 6.88785L18.6483 6.9522L18.4626 7.01827L18.2778 7.08609L18.0935 7.15576L17.9102 7.22713L17.7279 7.30022L17.5461 7.37519L17.3652 7.45186L17.1852 7.53028L17.0062 7.61035L16.8281 7.69216L16.651 7.77562L16.4745 7.86092L16.2993 7.94778L16.125 8.03633L15.9517 8.12655L15.7794 8.21844L15.6083 8.3119L15.4379 8.40709L15.2686 8.50393L15.1008 8.60215L14.9335 8.70229L14.7678 8.80376L14.6032 8.90681L14.4394 9.01155L14.2769 9.11782L14.1156 9.22564L13.9558 9.33473L13.7966 9.44575L13.639 9.55796L13.4826 9.67172L13.3273 9.78704L13.1734 9.90373L13.0209 10.0218L12.8693 10.1416L12.7194 10.2625L12.5706 10.3849L12.4232 10.5087L12.2771 10.634L12.1325 10.7605L11.989 10.8885L11.8471 11.0177L11.7064 11.1484L11.5674 11.2802L11.4296 11.4134L11.2934 11.5478L11.1585 11.6835L11.025 11.8207L10.8932 11.9587L10.7629 12.098L10.6337 12.2389L10.5064 12.3807L10.3806 12.5235L10.2561 12.6678L10.1334 12.813L10.012 12.9595L9.89232 13.107L9.77418 13.2557L9.65758 13.4054L9.5427 13.5561L9.42932 13.7079L9.3175 13.8609L9.20748 14.0146L9.09893 14.1696L8.99211 14.3254L8.88694 14.4822L8.78335 14.64L8.68151 14.7987L8.58134 14.9582L8.48285 15.1187L8.38612 15.28L8.29098 15.4423L8.19755 15.6055L8.10596 15.7693L8.01601 15.934L7.92778 16.0996L7.84134 16.2659L7.7566 16.433L7.67368 16.6007L7.59249 16.7692L7.51309 16.9384L7.43542 17.1084L7.35959 17.2789L7.28548 17.4502L7.21318 17.6221L7.14273 17.7945L7.07404 17.9676L7.00715 18.1413L6.9421 18.3155L6.87885 18.4903L6.81747 18.6655L6.75786 18.8414L6.7001 19.0177L6.64419 19.1945L6.59013 19.3716L6.53787 19.5494L6.4875 19.7274L6.43897 19.9059L6.39228 20.0847L6.34745 20.264L6.30449 20.4435L6.26339 20.6234L6.22415 20.8036L6.18678 20.9841L6.15128 21.1648L6.11764 21.3458L6.08588 21.527L6.05599 21.7085L6.02798 21.8901L6.00184 22.0719L5.97758 22.2539L5.95519 22.436L5.93468 22.6182L5.91605 22.8006L5.8993 22.983L5.88442 23.1654L5.87142 23.348L5.8603 23.5306L5.85105 23.7131L5.84368 23.8957L5.83818 24.0782L5.83456 24.2607L5.8328 24.4431L5.83292 24.6255L5.8349 24.8077L5.83875 24.9899L5.84446 25.1719L5.85203 25.3537L5.86147 25.5354L5.87275 25.7168L5.88589 25.8981L5.90088 26.0791L5.91772 26.2599L5.93639 26.4405L5.95691 26.6207L5.97926 26.8007L6.00344 26.9803L6.02945 27.1596L6.05729 27.3386L6.08693 27.5171L6.1184 27.6953L6.15167 27.8731L6.18674 28.0504L6.22361 28.2274L6.26227 28.4038L6.30272 28.5798L6.34495 28.7553L6.38895 28.9303L6.43473 29.1048L6.48225 29.2786L6.53155 29.452L6.58259 29.6248L6.63537 29.797L6.68989 29.9686L6.74612 30.1395L6.80408 30.3098L6.86376 30.4794L6.92514 30.6484L6.9882 30.8166L7.05299 30.9842L7.11942 31.151L7.18753 31.3171L7.25732 31.4824L7.32875 31.6469L7.40184 31.8107L7.47656 31.9737L7.55291 32.1358L7.63087 32.2971L7.71045 32.4575L7.79162 32.6171L7.87439 32.7758L7.95873 32.9336L8.04465 33.0905L8.13212 33.2464L8.22114 33.4014L8.3117 33.5555L8.4038 33.7085L8.49737 33.8606L8.59251 34.0117L8.6891 34.1617L8.7872 34.3108L8.88677 34.4588L8.98778 34.6057L9.09024 34.7516L9.19417 34.8964L9.29949 35.0401L9.40626 35.1827L9.51438 35.3241L9.62395 35.4644L9.73483 35.6035L9.84711 35.7415L9.96077 35.8784L10.0757 36.014L10.192 36.1484L10.3096 36.2816L10.4285 36.4136L10.5487 36.5443L10.6701 36.6738L10.7928 36.802L10.9168 36.929L11.042 37.0547L11.1684 37.179L11.2961 37.3021L11.4248 37.4238L11.5548 37.5443L11.686 37.6634L11.8183 37.7811L11.9516 37.8974L12.0862 38.0124L12.2219 38.126L12.3585 38.2382L12.4964 38.3491L12.6352 38.4584L12.7751 38.5664L12.916 38.673L13.058 38.7781L13.2009 38.8817L13.3448 38.9839L13.4896 39.0846L13.6355 39.1839L13.7822 39.2816L13.93 39.3779L14.0785 39.4727L14.228 39.5659L14.3784 39.6577L14.5295 39.7479L14.6816 39.8366L14.8344 39.9237L14.9881 40.0093L15.1425 40.0933L15.2978 40.1758L15.4537 40.2567L15.6104 40.3361L15.7679 40.4138L15.9261 40.49L16.0849 40.5646L16.2444 40.6376L16.4045 40.7089L16.5654 40.7787L16.7268 40.8468L16.8889 40.9134L17.0515 40.9783L17.2147 41.0415L17.3785 41.1032L17.5427 41.1632L17.7075 41.2215L17.8729 41.2782L18.0387 41.3333L18.205 41.3867L18.3716 41.4384L18.5389 41.4885L18.7064 41.5369L18.8744 41.5836L19.0428 41.6287L19.2115 41.6721L19.3806 41.7138L19.5499 41.7538L19.7197 41.7922L19.8897 41.8288L20.0599 41.8638L20.2305 41.8971L20.4013 41.9287L20.5723 41.9586L20.7435 41.9868L20.9149 42.0133L21.0865 42.0381L21.2583 42.0612L21.4301 42.0827L21.6021 42.1024L21.7742 42.1204L21.9464 42.1368L22.1187 42.1514L22.291 42.1644L22.4633 42.1756L22.6357 42.1852L22.808 42.193L22.9803 42.1992L23.1526 42.2037L23.3249 42.2064L23.497 42.2075L23.6691 42.2069L23.8411 42.2046L24.0129 42.2007L24.1846 42.195L24.3562 42.1877L24.5276 42.1787L24.6987 42.168L24.8697 42.1557L25.0405 42.1417L25.211 42.126L25.3812 42.1086L25.5512 42.0896L25.7208 42.069L25.8902 42.0467L26.0592 42.0227L26.2279 41.9971L26.3962 41.9699L26.5642 41.941L26.7318 41.9105L26.8989 41.8784L27.0656 41.8447L27.2319 41.8093L27.3977 41.7724L27.563 41.7338L27.7279 41.6936L27.8922 41.6519L28.056 41.6085L28.2192 41.5636L28.382 41.5171L28.5441 41.469L28.7057 41.4194L28.8666 41.3683L29.027 41.3155L29.1867 41.2613L29.3456 41.2055L29.5041 41.1481L29.6618 41.0893L29.8188 41.0289L29.9751 40.9671L30.1306 40.9038L30.2854 40.8389L30.4395 40.7726L30.5928 40.7048L30.7452 40.6356L30.897 40.5649L31.0479 40.4927L31.1979 40.4192L31.3472 40.3441L31.4955 40.2677L31.643 40.1899L31.7897 40.1106L31.9353 40.03L32.0801 39.948L32.2239 39.8647L32.367 39.7799L32.5088 39.6939L32.65 39.6064L32.7899 39.5177L32.9289 39.4276L33.067 39.3362L33.2041 39.2434L33.3399 39.1496L33.4748 39.0543L33.6087 38.9578L33.7415 38.8601L33.8733 38.761L34.0038 38.6609L34.1335 38.5593L34.2618 38.4567L34.389 38.3529L34.5153 38.2478L34.6403 38.1415L34.764 38.0342L34.8867 37.9256L35.0081 37.816L35.1284 37.7052L35.2475 37.5933L35.3652 37.4804L35.4819 37.3662L35.5973 37.251L35.7114 37.1348L35.8243 37.0175L35.9358 36.8993L36.046 36.7801L36.1552 36.6595L36.2628 36.5383L36.3693 36.4159L36.4743 36.2927L36.5781 36.1684L36.6805 36.0433L36.7815 35.9172L36.8813 35.7901L36.9796 35.6623L37.0767 35.5334L37.1722 35.4038L37.2665 35.2732L37.3595 35.1417L37.4507 35.0097L37.5408 34.8766L37.6293 34.7429L37.7165 34.6082L37.8024 34.4727L37.8866 34.3367L37.9694 34.1999L38.0509 34.062L38.1307 33.9239L38.2092 33.7848L38.2863 33.645L38.3617 33.5048L38.4358 33.3636L38.5084 33.2218L38.5793 33.0799L38.6489 32.9368L38.717 32.7932L38.7835 32.6492L38.8485 32.5046L38.912 32.3594L38.9739 32.2138L39.0344 32.0674L39.0933 31.9206L39.1506 31.7737L39.2064 31.6257L39.2606 31.4777L39.3134 31.329L39.3646 31.18L39.4142 31.0305L39.4621 30.881L39.5087 30.7304L39.5535 30.58L39.5968 30.4291L39.6386 30.278L39.6788 30.1263L39.7173 29.9746L39.7544 29.8224L39.7898 29.6699L39.8237 29.5173L39.856 29.3643L39.8866 29.2114L39.9157 29.0578L39.9432 28.9046L39.9691 28.7508L39.9934 28.5969L40.0161 28.443L40.0373 28.2888L40.0568 28.1348L40.0748 27.9801L40.0911 27.826L40.1059 27.6714L40.119 27.5171L40.1306 27.3623L40.1406 27.2081L40.149 27.0534L40.1558 26.8986L40.161 26.7442L40.1647 26.5901L40.1667 26.4354L40.1672 26.281L40.1661 26.1268L40.1634 25.9727L40.1591 25.8186L40.1532 25.6651L40.1458 25.511L40.1368 25.3576L40.1262 25.2042L40.1141 25.0513L40.1004 24.8981L40.0852 24.7456L40.0684 24.593L40.05 24.4409L40.0301 24.2889L40.0087 24.1374L39.9856 23.9858L39.9611 23.8349L39.9351 23.6845L39.9075 23.534L39.8783 23.384L39.8477 23.2346L39.8155 23.0851L39.782 22.9367L39.7467 22.7881L39.7102 22.6405L39.6719 22.4927L39.6323 22.346L39.5912 22.1995L39.5486 22.0533L39.5046 21.908L39.4591 21.7632L39.412 21.6185L39.3637 21.4749L39.3137 21.3314L39.2625 21.1888L39.2097 21.0465L39.1556 20.9052L39.0999 20.7641L39.0429 20.6238L38.9846 20.4844L38.9249 20.3456L38.8635 20.207L38.8012 20.0697L38.7371 19.9325L38.6719 19.7966L38.6053 19.6612L38.5372 19.5263L38.468 19.3925L38.3973 19.2593L38.3252 19.1267L38.2522 18.9954L38.1775 18.8644L38.1017 18.7345L38.0244 18.6052L37.9462 18.4772L37.8663 18.3495L37.7855 18.223L37.7032 18.0971L37.6198 17.9723L37.5353 17.8486L37.4493 17.7254L37.3622 17.6033L37.274 17.4821L37.1845 17.362L37.0939 17.2426L37.0021 17.1244L36.9092 17.007L36.8151 16.8907L36.7199 16.7754L36.6235 16.661L36.526 16.5477L36.4275 16.4354L36.328 16.3242L36.2273 16.214L36.1253 16.1047L36.0228 15.9969L35.9186 15.8897L35.8139 15.784L35.708 15.6791L35.6012 15.5755L35.493 15.4727L35.3844 15.3715L35.2744 15.2711L35.1635 15.1719L35.052 15.074L34.9394 14.9772L34.8255 14.8813L34.711 14.7868L34.5957 14.6935L34.4794 14.6014L34.3622 14.5104L34.2444 14.4209L34.1253 14.3321L34.0058 14.245L33.8853 14.159L33.7639 14.0741L33.642 13.9906L33.5188 13.9081L33.3956 13.8273L33.271 13.7474L33.146 13.6689L33.02 13.5916L32.8935 13.5156L32.7663 13.441L32.6386 13.3678L32.5097 13.2955L32.3808 13.2249L32.2508 13.1554L32.1203 13.0873L31.9893 13.0206L31.8575 12.9551L31.7252 12.8909L31.5924 12.8282L31.4589 12.7667L31.3251 12.7067L31.1906 12.6479L31.0513 12.5887L30.9203 12.5346L30.784 12.4798L30.6479 12.4267L30.5107 12.3746L30.3735 12.3242L30.2357 12.275L30.0976 12.2273L29.9589 12.1808L29.8201 12.1359L29.6807 12.0923L29.541 12.0501L29.4012 12.0094L29.2608 11.97L29.1199 11.9319L28.9792 11.8954L28.8382 11.8602L28.6963 11.8264L28.5549 11.7941L28.4128 11.7631L28.2707 11.7336L28.1281 11.7054L27.9857 11.6787L27.8429 11.6534L27.7002 11.6296L27.5568 11.6071L27.4138 11.5861L27.2705 11.5665L27.127 11.5483L26.9835 11.5315L26.84 11.5161L26.6964 11.5022L26.5527 11.4897L26.4089 11.4786L26.265 11.4689L26.1215 11.4606L25.9779 11.4538L25.8338 11.4483L25.6905 11.4443L25.5469 11.4417L25.4034 11.4405L25.2597 11.4407L25.2309 11.441L25.2762 15.2632L25.3577 15.2628L25.4626 15.2634L25.5675 15.265L25.6725 15.2677L25.7776 15.2714L25.8827 15.2762L25.9878 15.282L26.093 15.2888L26.1982 15.2967L26.3034 15.3056L26.4086 15.3156L26.5137 15.3266L26.6189 15.3387L26.724 15.3518L26.829 15.3659L26.934 15.3812L27.0389 15.3974L27.1437 15.4147L27.2485 15.4331L27.3531 15.4525L27.4576 15.473L27.562 15.4945L27.6663 15.517L27.7704 15.5406L27.8743 15.5653L27.9781 15.591L28.0816 15.6177L28.185 15.6455L28.2882 15.6743L28.3912 15.7042L28.494 15.7351L28.5965 15.767L28.6987 15.8L28.8007 15.834L28.9025 15.8691L29.0039 15.9052L29.1051 15.9423L29.2059 15.9804L29.3065 16.0196L29.4067 16.0598L29.5066 16.101L29.6061 16.1433L29.7053 16.1865L29.8041 16.2308L29.9025 16.276L30.0005 16.3223L30.0982 16.3696L30.1954 16.4179L30.2922 16.4672L30.3886 16.5175L30.4845 16.5687L30.58 16.621L30.675 16.6742L30.7695 16.7284L30.8636 16.7836L30.9572 16.8398L31.0502 16.8969L31.1427 16.955L31.2347 17.0141L31.3262 17.0741L31.4171 17.135L31.5075 17.1969L31.5973 17.2598L31.6865 17.3235L31.7751 17.3882L31.8631 17.4539L31.9506 17.5204L32.0373 17.5879L32.1235 17.6563L32.209 17.7255L32.2939 17.7957L32.3781 17.8668L32.4617 17.9387L32.5446 18.0115L32.6268 18.0852L32.7083 18.1598L32.789 18.2352L32.8691 18.3115L32.9484 18.3886L33.027 18.4666L33.1049 18.5454L33.182 18.6251L33.2584 18.7055L33.3339 18.7868L33.4087 18.8689L33.4827 18.9518L33.5559 19.0354L33.6283 19.1199L33.6999 19.2051L33.7707 19.2911L33.8406 19.3779L33.9097 19.4654L33.9779 19.5537L34.0453 19.6427L34.1118 19.7325L34.1774 19.8229L34.2422 19.9141L34.306 20.006L34.369 20.0986L34.431 20.1919L34.4921 20.2858L34.5523 20.3805L34.6116 20.4758L34.67 20.5717L34.7274 20.6683L34.7838 20.7656L34.8393 20.8634L34.8938 20.9619L34.9473 21.061L34.9999 21.1607L35.0515 21.261L35.102 21.3619L35.1516 21.4634L35.2002 21.5654L35.2477 21.6679L35.2942 21.7711L35.3397 21.8747L35.3842 21.9789L35.4276 22.0836L35.47 22.1888L35.5113 22.2945L35.5515 22.4006L35.5907 22.5073L35.6288 22.6144L35.6659 22.722L35.7019 22.83L35.7367 22.9385L35.7705 23.0473L35.8032 23.1566L35.8348 23.2663L35.8653 23.3764L35.8946 23.4869L35.9229 23.5977L35.95 23.7089L35.976 23.8204L36.0009 23.9323L36.0246 24.0445L36.0472 24.157L36.0686 24.2698L36.0889 24.383L36.1081 24.4964L36.1261 24.61L36.1429 24.724L36.1586 24.8381L36.1731 24.9525L36.1865 25.0672L36.1986 25.1821L36.2096 25.2971L36.2195 25.4124L36.2281 25.5278L36.2356 25.6434L36.2418 25.7591L36.2469 25.875L36.2508 25.9911L36.2535 26.1072L36.255 26.2235L36.2553 26.3399L36.2544 26.4563L36.2523 26.5728L36.249 26.6894L36.2445 26.8061L36.2388 26.9227L36.2319 27.0394L36.2238 27.1562L36.2145 27.2729L36.2039 27.3896L36.1922 27.5063L36.1792 27.6229L36.1651 27.7396L36.1497 27.8561L36.1331 27.9726L36.1153 28.089L36.0963 28.2053L36.0761 28.3215L36.0546 28.4376L36.032 28.5536L36.0081 28.6694L35.983 28.7851L35.9568 28.9006L35.9293 29.0159L35.9006 29.131L35.8707 29.246L35.8396 29.3607L35.8073 29.4752L35.7738 29.5894L35.7391 29.7034L35.7032 29.8172L35.666 29.9307L35.6277 30.0438L35.5882 30.1567L35.5476 30.2693L35.5057 30.3815L35.4626 30.4934L35.4184 30.605L35.373 30.7162L35.3264 30.8271L35.2786 30.9375L35.2297 31.0476L35.1796 31.1573L35.1283 31.2665L35.0759 31.3753L35.0223 31.4837L34.9675 31.5916L34.9116 31.6991L34.8546 31.806L34.7964 31.9125L34.7371 32.0185L34.6767 32.124L34.6151 32.2289L34.5524 32.3334L34.4886 32.4372L34.4237 32.5406L34.3576 32.6433L34.2905 32.7455L34.2222 32.847L34.1529 32.948L34.0825 33.0484L34.011 33.1481L33.9384 33.2472L33.8648 33.3457L33.7901 33.4435L33.7143 33.5406L33.6375 33.637L33.5596 33.7328L33.4807 33.8278L33.4008 33.9222L33.3198 34.0158L33.2378 34.1087L33.1548 34.2008L33.0708 34.2922L32.9858 34.3828L32.8999 34.4727L32.8129 34.5617L32.725 34.65L32.636 34.7374L32.5462 34.8241L32.4553 34.9099L32.3636 34.9948L32.2709 35.079L32.1772 35.1622L32.0827 35.2446L31.9872 35.3262L31.8909 35.4068L31.7936 35.4866L31.6955 35.5654L31.5964 35.6433L31.4965 35.7203L31.3958 35.7964L31.2942 35.8715L31.1917 35.9457L31.0885 36.019L30.9844 36.0912L30.8795 36.1625L30.7737 36.2328L30.6672 36.3021L30.5599 36.3704L30.4519 36.4377L30.343 36.5039L30.2335 36.5692L30.1231 36.6334L30.0121 36.6965L29.9003 36.7586L29.7878 36.8197L29.6746 36.8797L29.5607 36.9386L29.4461 36.9964L29.3309 37.0531L29.215 37.1088L29.0984 37.1633L28.9812 37.2167L28.8634 37.269L28.745 37.3202L28.6259 37.3702L28.5063 37.4191L28.3861 37.4669L28.2653 37.5135L28.144 37.559L28.0221 37.6033L27.8997 37.6464L27.7767 37.6883L27.6533 37.7291L27.5293 37.7686L27.4049 37.807L27.28 37.8442L27.1546 37.8801L27.0288 37.9149L26.9025 37.9484L26.7758 37.9807L26.6487 38.0118L26.5212 38.0417L26.3932 38.0703L26.265 38.0977L26.1363 38.1238L26.0073 38.1487L25.878 38.1724L25.7483 38.1948L25.6183 38.2159L25.4881 38.2357L25.3575 38.2543L25.2266 38.2716L25.0955 38.2877L24.9642 38.3024L24.8326 38.3159L24.7008 38.3281L24.5688 38.339L24.4366 38.3486L24.3042 38.3569L24.1716 38.3639L24.0389 38.3696L23.906 38.374L23.773 38.3771L23.6399 38.3789L23.5066 38.3794L23.3733 38.3786L23.24 38.3764L23.1065 38.373L22.973 38.3682L22.8395 38.3621L22.7059 38.3547L22.5724 38.346L22.4388 38.336L22.3053 38.3246L22.1718 38.3119L22.0383 38.2979L21.9049 38.2826L21.7716 38.266L21.6383 38.248L21.5052 38.2287L21.3722 38.2081L21.2393 38.1862L21.1065 38.1629L20.9739 38.1384L20.8415 38.1125L20.7093 38.0852L20.5772 38.0567L20.4454 38.0269L20.3138 37.9957L20.1824 37.9632L20.0513 37.9294L19.9204 37.8943L19.7898 37.8579L19.6596 37.8202L19.5296 37.7812L19.3999 37.7409L19.2706 37.6992L19.1417 37.6563L19.013 37.6121L18.8848 37.5666L18.757 37.5198L18.6295 37.4717L18.5025 37.4223L18.3759 37.3717L18.2497 37.3197L18.124 37.2665L17.9988 37.2121L17.8741 37.1563L17.7498 37.0993L17.6261 37.0411L17.5029 36.9816L17.3802 36.9208L17.258 36.8588L17.1365 36.7956L17.0155 36.7311L16.8951 36.6654L16.7753 36.5985L16.6561 36.5303L16.5375 36.461L16.4196 36.3904L16.3023 36.3186L16.1857 36.2457L16.0698 36.1715L15.9546 36.0962L15.8401 36.0196L15.7263 35.9419L15.6132 35.8631L15.5009 35.7831L15.3893 35.7019L15.2785 35.6196L15.1684 35.5361L15.0592 35.4515L14.9508 35.3658L14.8432 35.2789L14.7364 35.191L14.6304 35.1019L14.5253 35.0118L14.4211 34.9205L14.3177 34.8282L14.2152 34.7348L14.1137 34.6404L14.013 34.5449L13.9132 34.4483L13.8144 34.3507L13.7166 34.2521L13.6197 34.1524L13.5237 34.0518L13.4287 33.9501L13.3348 33.8475L13.2418 33.7438L13.1498 33.6392L13.0589 33.5336L12.9689 33.4271L12.8801 33.3196L12.7922 33.2111L12.7055 33.1018L12.6198 32.9915L12.5352 32.8803L12.4517 32.7682L12.3692 32.6553L12.2879 32.5414L12.2078 32.4267L12.1287 32.3111L12.0508 32.1947L11.9741 32.0775L11.8985 31.9594L11.824 31.8405L11.7508 31.7208L11.6787 31.6003L11.6079 31.4791L11.5382 31.357L11.4698 31.2343L11.4025 31.1107L11.3366 30.9865L11.2718 30.8615L11.2083 30.7358L11.146 30.6094L11.085 30.4823L11.0253 30.3546L10.9669 30.2261L10.9097 30.0971L10.8539 29.9674L10.7993 29.837L10.746 29.7061L10.6941 29.5746L10.6435 29.4424L10.5942 29.3097L10.5463 29.1765L10.4996 29.0426L10.4544 28.9083L10.4105 28.7734L10.3679 28.638L10.3267 28.5022L10.2869 28.3658L10.2485 28.229L10.2114 28.0917L10.1758 27.9539L10.1415 27.8158L10.1087 27.6772L10.0772 27.5382L10.0472 27.3988L10.0185 27.2591L9.99133 27.119L9.96554 26.9785L9.94118 26.8377L9.91826 26.6966L9.89677 26.5552L9.87672 26.4135L9.85812 26.2715L9.84097 26.1292L9.82527 25.9867L9.81102 25.844L9.79823 25.701L9.78691 25.5578L9.77705 25.4145L9.76865 25.2709L9.76173 25.1272L9.75628 24.9834L9.75231 24.8394L9.74981 24.6953L9.74879 24.551L9.74926 24.4067L9.7512 24.2623L9.75464 24.1179L9.75955 23.9734L9.76596 23.8288L9.77386 23.6843L9.78324 23.5397L9.79412 23.3952L9.80648 23.2506L9.82034 23.1062L9.8357 22.9617L9.85254 22.8174L9.87088 22.6731L9.89071 22.5289L9.91203 22.3848L9.93485 22.2409L9.95915 22.0971L9.98495 21.9535L10.0122 21.81L10.041 21.6667L10.0713 21.5237L10.103 21.3808L10.1363 21.2382L10.171 21.0958L10.2072 20.9537L10.2449 20.8119L10.284 20.6703L10.3247 20.5291L10.3668 20.3882L10.4104 20.2476L10.4555 20.1073L10.502 19.9675L10.5499 19.828L10.5994 19.6889L10.6503 19.5502L10.7027 19.4119L10.7564 19.2741L10.8117 19.1367L10.8684 18.9998L10.9265 18.8634L10.9861 18.7274L11.0471 18.592L11.1095 18.4571L11.1733 18.3227L11.2386 18.1889L11.3053 18.0557L11.3733 17.923L11.4428 17.791L11.5136 17.6595L11.5859 17.5287L11.6595 17.3985L11.7346 17.2689L11.811 17.1401L11.8887 17.0119L11.9678 16.8844L12.0483 16.7576L12.1301 16.6315L12.2133 16.5062L12.2977 16.3816L12.3836 16.2578L12.4707 16.1347L12.5591 16.0124L12.6489 15.891L12.7399 15.7703L12.8323 15.6505L12.9259 15.5315L13.0208 15.4134L13.1169 15.2962L13.2143 15.1798L13.313 15.0643L13.4129 14.9497L13.514 14.8361L13.6164 14.7234L13.7199 14.6116L13.8247 14.5008L13.9307 14.3909L14.0378 14.2821L14.1461 14.1742L14.2556 14.0673L14.3663 13.9615L14.4781 13.8566L14.591 13.7529L14.7051 13.6501L14.8203 13.5485L14.9365 13.4479L15.0539 13.3484L15.1724 13.25L15.2919 13.1527L15.4125 13.0565L15.5342 12.9615L15.6569 12.8676L15.7806 12.7749L15.9054 12.6833L16.0311 12.5929L16.1578 12.5037L16.2856 12.4157L16.4143 12.3289L16.5439 12.2434L16.6746 12.159L16.8061 12.0759L16.9386 11.994L17.072 11.9134L17.2063 11.8341L17.3414 11.756L17.4775 11.6792L17.6144 11.6038L17.7521 11.5296L17.8907 11.4567L18.0301 11.3852L18.1703 11.315L18.3113 11.2461L18.4531 11.1786L18.5957 11.1124L18.739 11.0476L18.8831 10.9842L19.0279 10.9222L19.1734 10.8615L19.3196 10.8022L19.4664 10.7444L19.614 10.688L19.7622 10.6329L19.9111 10.5794L20.0606 10.5272L20.2107 10.4765L20.3614 10.4272L20.5126 10.3794L20.6645 10.333L20.8169 10.2881L20.9699 10.2447L21.1233 10.2028L21.2773 10.1623L21.4318 10.1234L21.5868 10.0859L21.7422 10.05L21.8981 10.0155L22.0544 9.98257L22.2111 9.95115L22.3683 9.92126L22.5258 9.89289L22.6837 9.86605L22.842 9.84075L23.0006 9.81699L23.1595 9.79478L23.3187 9.77411L23.3781 9.76699ZM23.4453 15.4361L23.3995 11.5719L23.269 11.5901L23.1287 11.6112L22.9883 11.6336L22.8488 11.6573L22.7091 11.6825L22.5701 11.7089L22.4314 11.7367L22.2932 11.7658L22.1553 11.7963L22.0177 11.8282L21.8805 11.8613L21.7439 11.8958L21.6074 11.9316L21.4763 11.9674L21.3366 12.0071L21.2017 12.0468L21.0674 12.0878L20.9338 12.13L20.8005 12.1736L20.6677 12.2185L20.5355 12.2646L20.404 12.3119L20.273 12.3606L20.1426 12.4104L20.0127 12.4616L19.8838 12.5139L19.7549 12.5676L19.627 12.6224L19.4997 12.6784L19.3733 12.7356L19.2472 12.7941L19.1218 12.8538L18.9975 12.9145L18.8734 12.9766L18.7506 13.0397L18.628 13.1042L18.5066 13.1695L18.3854 13.2364L18.2654 13.304L18.1462 13.3729L18.0276 13.443L17.9099 13.5141L17.7928 13.5865L17.6769 13.6597L17.5615 13.7342L17.4472 13.8097L17.3337 13.8862L17.221 13.9639L17.109 14.0427L16.9983 14.1222L16.8882 14.2031L16.779 14.2849L16.6708 14.3677L16.5636 14.4514L16.4571 14.5363L16.3518 14.622L16.2474 14.7087L16.1438 14.7966L16.0415 14.8851L15.9399 14.9748L15.8393 15.0654L15.7398 15.1568L15.6414 15.2491L15.5437 15.3425L15.4474 15.4365L15.352 15.5315L15.2575 15.6275L15.1642 15.7242L15.0719 15.8219L14.9807 15.9203L14.8906 16.0195L14.8015 16.1196L14.7134 16.2206L14.6268 16.3221L14.541 16.4246L14.4563 16.5279L14.3728 16.6318L14.2905 16.7364L14.2091 16.842L14.129 16.9481L14.05 17.055L13.9722 17.1626L13.8955 17.2709L13.8201 17.3797L13.7458 17.4893L13.6726 17.5996L13.6006 17.7105L13.5299 17.8219L13.4604 17.934L13.392 18.0469L13.3248 18.1601L13.2589 18.274L13.1941 18.3885L13.1307 18.5033L13.0684 18.6189L13.0072 18.7351L12.9475 18.8515L12.8889 18.9687L12.8316 19.0863L12.7755 19.2042L12.7207 19.3228L12.6671 19.4417L12.6148 19.5611L12.5637 19.6809L12.514 19.8011L12.4655 19.9217L12.4182 20.0428L12.3722 20.1642L12.3276 20.2859L12.2841 20.4081L12.2421 20.5304L12.2012 20.6532L12.1617 20.7763L12.1234 20.8997L12.0865 21.0233L12.0508 21.1472L12.0165 21.2713L11.9834 21.3958L11.9516 21.5204L11.9212 21.6453L11.8921 21.7704L11.8642 21.8956L11.8377 22.0211L11.8125 22.1467L11.7885 22.2724L11.7659 22.3984L11.7446 22.5244L11.7246 22.6506L11.7059 22.7767L11.6885 22.9031L11.6725 23.0295L11.6577 23.156L11.6443 23.2825L11.6321 23.4091L11.6213 23.5357L11.6118 23.6622L11.6036 23.7889L11.5966 23.9155L11.591 24.042L11.5867 24.1685L11.5837 24.2949L11.582 24.4213L11.5816 24.5477L11.5825 24.6739L11.5847 24.8L11.5882 24.926L11.5929 25.0518L11.599 25.1776L11.6063 25.3032L11.615 25.4285L11.6249 25.5538L11.636 25.6788L11.6485 25.8036L11.6622 25.9282L11.6772 26.0526L11.6935 26.1768L11.711 26.3006L11.7298 26.4243L11.7498 26.5475L11.7711 26.6706L11.7937 26.7934L11.8174 26.9157L11.8425 27.0379L11.8687 27.1596L11.8962 27.2811L11.9249 27.402L11.9548 27.5227L11.9859 27.643L12.0183 27.7629L12.0518 27.8823L12.0866 28.0014L12.1225 28.12L12.1597 28.2382L12.198 28.356L12.2375 28.4732L12.2782 28.5899L12.32 28.7062L12.363 28.822L12.4072 28.9373L12.4525 29.052L12.4989 29.1662L12.5465 29.2799L12.5952 29.393L12.6451 29.5055L12.696 29.6175L12.7481 29.7288L12.8013 29.8396L12.8555 29.9498L12.9109 30.0593L12.9673 30.1683L13.0248 30.2766L13.0834 30.3842L13.143 30.4912L13.2037 30.5975L13.2654 30.7031L13.3282 30.808L13.392 30.9123L13.4568 31.0158L13.5226 31.1186L13.5895 31.2208L13.6572 31.322L13.7261 31.4227L13.7958 31.5225L13.8666 31.6216L13.9383 31.7199L14.011 31.8174L14.0846 31.9141L14.1592 32.0101L14.2346 32.1052L14.311 32.1995L14.3883 32.293L14.4665 32.3857L14.5456 32.4774L14.6256 32.5685L14.7064 32.6585L14.7881 32.7478L14.8706 32.8361L14.954 32.9236L15.0382 33.0102L15.1233 33.0959L15.2091 33.1807L15.2958 33.2646L15.3833 33.3476L15.4714 33.4296L15.5605 33.5108L15.6502 33.5909L15.7407 33.6701L15.832 33.7484L15.924 33.8257L16.0167 33.9021L16.1101 33.9774L16.2042 34.0518L16.299 34.1252L16.3945 34.1977L16.4907 34.2691L16.5874 34.3395L16.6848 34.4089L16.7829 34.4773L16.8816 34.5447L16.981 34.6111L17.0809 34.6764L17.1814 34.7407L17.2825 34.804L17.3841 34.8662L17.4863 34.9274L17.5891 34.9875L17.6923 35.0465L17.7962 35.1045L17.9004 35.1614L18.0053 35.2173L18.1106 35.2721L18.2163 35.3257L18.3226 35.3784L18.4294 35.4299L18.5365 35.4804L18.644 35.5297L18.7521 35.578L18.8604 35.6251L18.9692 35.6711L19.0784 35.7161L19.188 35.7599L19.2978 35.8026L19.4081 35.8442L19.5187 35.8847L19.6296 35.9241L19.7408 35.9623L19.8524 35.9995L19.9642 36.0354L20.0763 36.0703L20.1887 36.104L20.3013 36.1366L20.4141 36.1681L20.5272 36.1984L20.6405 36.2277L20.754 36.2557L20.8677 36.2826L20.9816 36.3084L21.0957 36.3331L21.2099 36.3566L21.3242 36.3789L21.4388 36.4001L21.5533 36.4202L21.6681 36.4392L21.7829 36.4569L21.8978 36.4736L22.0128 36.4891L22.1278 36.5035L22.2429 36.5167L22.358 36.5288L22.4732 36.5397L22.5884 36.5495L22.7036 36.5581L22.8188 36.5657L22.9339 36.572L23.049 36.5773L23.1642 36.5814L23.2792 36.5844L23.3941 36.5862L23.509 36.5869L23.6238 36.5865L23.7385 36.5849L23.8531 36.5823L23.9675 36.5785L24.0819 36.5736L24.196 36.5675L24.31 36.5604L24.4238 36.5521L24.5375 36.5427L24.6509 36.5322L24.7642 36.5206L24.8773 36.5079L24.9901 36.4941L25.1027 36.4792L25.215 36.4633L25.3271 36.4462L25.4389 36.428L25.5503 36.4088L25.6616 36.3884L25.7725 36.367L25.8831 36.3446L25.9935 36.321L26.1033 36.2964L26.2129 36.2708L26.3221 36.244L26.431 36.2163L26.5395 36.1875L26.6476 36.1576L26.7553 36.1267L26.8626 36.0948L26.9694 36.0619L27.0758 36.0279L27.1819 35.9929L27.2874 35.9569L27.3925 35.9199L27.4971 35.8819L27.6012 35.8429L27.7048 35.8029L27.8079 35.7619L27.9106 35.7199L28.0127 35.677L28.1142 35.6331L28.2153 35.5883L28.3157 35.5425L28.4157 35.4957L28.5151 35.448L28.6137 35.3995L28.7121 35.3498L28.8096 35.2994L28.9067 35.2479L29.0029 35.1957L29.0987 35.1425L29.1939 35.0884L29.2883 35.0334L29.3822 34.9775L29.4754 34.9208L29.5678 34.8632L29.6598 34.8047L29.7508 34.7455L29.8413 34.6853L29.9312 34.6242L30.0202 34.5624L30.1084 34.4999L30.1962 34.4363L30.283 34.3722L30.3692 34.3071L30.4547 34.2412L30.5391 34.1747L30.6232 34.1072L30.7064 34.039L30.7885 33.9702L30.8703 33.9003L30.951 33.83L31.0309 33.759L31.1103 33.6869L31.1885 33.6145L31.2661 33.5412L31.3429 33.4672L31.4187 33.3926L31.4938 33.3172L31.5681 33.2412L31.6415 33.1645L31.7139 33.0872L31.7856 33.0092L31.8565 32.9306L31.9263 32.8515L31.9955 32.7715L32.0636 32.6911L32.1308 32.6101L32.1973 32.5283L32.2627 32.4463L32.3273 32.3634L32.391 32.2801L32.4538 32.1961L32.5156 32.1117L32.5764 32.0269L32.6365 31.9412L32.6955 31.8553L32.7536 31.7688L32.8109 31.6817L32.8669 31.5944L32.9223 31.5064L32.9766 31.4179L33.03 31.3291L33.0823 31.2398L33.1339 31.1499L33.1842 31.06L33.2338 30.9692L33.2823 30.8783L33.3297 30.787L33.3764 30.695L33.4218 30.6032L33.4665 30.5104L33.5099 30.4179L33.5527 30.3244L33.5941 30.2311L33.6348 30.137L33.6744 30.043L33.7129 29.9486L33.7505 29.8538L33.7871 29.7587L33.8225 29.6636L33.8572 29.5679L33.8906 29.4721L33.9231 29.3761L33.9546 29.2798L33.9851 29.1832L34.0146 29.0865L34.043 28.9897L34.0704 28.8925L34.0967 28.7953L34.1221 28.6978L34.1464 28.6002L34.1697 28.5026L34.192 28.4045L34.2132 28.3065L34.2335 28.2084L34.2526 28.1103L34.2708 28.012L34.2879 27.9133L34.304 27.815L34.3191 27.7164L34.3331 27.6177L34.3461 27.5192L34.3581 27.4205L34.3691 27.3215L34.379 27.2232L34.388 27.1241L34.3959 27.0254L34.4027 26.9269L34.4086 26.8281L34.4134 26.7295L34.4172 26.631L34.42 26.5322L34.4217 26.434L34.4225 26.3354L34.4222 26.2371L34.421 26.1388L34.4187 26.0409L34.4154 25.9428L34.4111 25.8449L34.4058 25.7474L34.3995 25.6496L34.3922 25.5521L34.384 25.4551L34.3747 25.3578L34.3644 25.2611L34.3531 25.1642L34.3409 25.0678L34.3277 24.9715L34.3135 24.8753L34.2983 24.7795L34.2822 24.684L34.2651 24.5887L34.247 24.4937L34.2279 24.3986L34.2079 24.3042L34.187 24.2101L34.1651 24.1161L34.1422 24.0223L34.1185 23.9293L34.0937 23.836L34.0681 23.7435L34.0415 23.6511L34.014 23.5593L33.9856 23.4676L33.9562 23.3763L33.926 23.2856L33.8949 23.1952L33.8627 23.1049L33.8299 23.0154L33.796 22.9261L33.7613 22.8374L33.7257 22.7489L33.6892 22.6608L33.6519 22.5735L33.6136 22.4863L33.5746 22.3998L33.5347 22.3138L33.4939 22.228L33.4522 22.1427L33.4099 22.0582L33.3665 21.9739L33.3225 21.8904L33.2776 21.8074L33.2318 21.7245L33.1854 21.6426L33.138 21.561L33.0899 21.4801L33.0409 21.3995L32.9914 21.3198L32.9408 21.2403L32.8897 21.1617L32.8377 21.0836L32.785 21.0061L32.7314 20.929L32.6772 20.8527L32.6224 20.7771L32.5666 20.7018L32.5103 20.6274L32.4531 20.5535L32.3955 20.4804L32.3369 20.4077L32.2777 20.3358L32.2178 20.2645L32.1573 20.1938L32.0962 20.124L32.0342 20.0546L31.9718 19.9861L31.9086 19.9181L31.845 19.8511L31.7804 19.7844L31.7155 19.7187L31.6497 19.6534L31.5835 19.5891L31.5168 19.5255L31.4494 19.4625L31.3813 19.4002L31.3127 19.3388L31.2436 19.2781L31.1737 19.2179L31.1038 19.1589L31.0329 19.1002L30.9616 19.0425L30.8898 18.9856L30.8174 18.9292L30.7446 18.8738L30.6715 18.8193L30.5975 18.7653L30.523 18.712L30.4485 18.6599L30.373 18.6082L30.2976 18.5577L30.2215 18.5077L30.1449 18.4585L30.0678 18.4101L29.9906 18.3627L29.9126 18.3159L29.8345 18.2701L29.7557 18.2249L29.677 18.1808L29.5976 18.1374L29.5178 18.0947L29.4377 18.0529L29.3574 18.0121L29.2766 17.9719L29.1954 17.9326L29.1141 17.8942L29.0326 17.8567L28.9502 17.8198L28.8682 17.784L28.7856 17.749L28.7026 17.7147L28.6195 17.6814L28.5363 17.649L28.4527 17.6174L28.3686 17.5865L28.2847 17.5567L28.2003 17.5276L28.1157 17.4994L28.0312 17.4721L27.9463 17.4457L27.8614 17.4201L27.7758 17.3953L27.6905 17.3715L27.605 17.3485L27.5193 17.3264L27.4335 17.3051L27.3473 17.2847L27.2613 17.2652L27.1753 17.2466L27.0889 17.2288L27.0023 17.2118L26.9162 17.1959L26.8295 17.1807L26.743 17.1664L26.6561 17.1529L26.5697 17.1404L26.4826 17.1286L26.3961 17.1179L26.3093 17.1079L26.2225 17.0988L26.1358 17.0906L26.0489 17.0832L25.9624 17.0767L25.8754 17.0711L25.7888 17.0663L25.7024 17.0624L25.6154 17.0593L25.5291 17.0571L25.4427 17.0558L25.3564 17.0553L25.2974 17.0555L25.3421 20.8309L25.3688 20.831L25.4184 20.8317L25.4681 20.8329L25.5179 20.8345L25.5677 20.8368L25.6176 20.8395L25.6675 20.8427L25.7175 20.8465L25.7675 20.8508L25.8176 20.8556L25.8677 20.8609L25.9178 20.8667L25.968 20.8731L26.0181 20.88L26.0683 20.8874L26.1185 20.8954L26.1687 20.9039L26.2188 20.9129L26.269 20.9225L26.3191 20.9325L26.3692 20.9432L26.4193 20.9543L26.4694 20.966L26.5193 20.9782L26.5693 20.9909L26.6192 21.0042L26.669 21.018L26.7188 21.0323L26.7685 21.0472L26.8181 21.0626L26.8676 21.0786L26.9171 21.0951L26.9664 21.1121L27.0157 21.1296L27.0648 21.1477L27.1138 21.1663L27.1627 21.1854L27.2115 21.2051L27.2601 21.2253L27.3086 21.246L27.357 21.2673L27.4052 21.2891L27.4533 21.3114L27.5012 21.3343L27.5489 21.3576L27.5965 21.3815L27.6438 21.406L27.691 21.4309L27.738 21.4564L27.7848 21.4824L27.8314 21.5089L27.8778 21.5359L27.9239 21.5634L27.9699 21.5915L28.0156 21.6201L28.0611 21.6492L28.1063 21.6787L28.1513 21.7088L28.1961 21.7395L28.2406 21.7706L28.2848 21.8022L28.3288 21.8343L28.3725 21.8669L28.4159 21.9L28.459 21.9336L28.5019 21.9677L28.5444 22.0023L28.5866 22.0373L28.6286 22.0729L28.6702 22.1089L28.7115 22.1454L28.7525 22.1824L28.7931 22.2199L28.8334 22.2578L28.8733 22.2962L28.913 22.3351L28.9522 22.3744L28.9911 22.4142L29.0297 22.4544L29.0678 22.4951L29.1056 22.5363L29.143 22.5779L29.1801 22.6199L29.2167 22.6624L29.2529 22.7053L29.2888 22.7486L29.3242 22.7924L29.3592 22.8366L29.3938 22.8812L29.428 22.9263L29.4618 22.9717L29.4951 23.0176L29.5279 23.0638L29.5604 23.1105L29.5924 23.1576L29.6239 23.2051L29.655 23.2529L29.6857 23.3012L29.7158 23.3498L29.7455 23.3988L29.7747 23.4482L29.8034 23.4979L29.8317 23.548L29.8594 23.5985L29.8867 23.6493L29.9135 23.7005L29.9397 23.752L29.9655 23.8038L29.9907 23.856L30.0154 23.9086L30.0396 23.9614L30.0633 24.0146L30.0865 24.0681L30.1091 24.1219L30.1312 24.176L30.1527 24.2304L30.1737 24.2851L30.1942 24.3401L30.2141 24.3954L30.2334 24.451L30.2522 24.5068L30.2704 24.5629L30.288 24.6193L30.3051 24.6759L30.3216 24.7328L30.3375 24.79L30.3529 24.8473L30.3677 24.9049L30.3818 24.9628L30.3954 25.0209L30.4084 25.0791L30.4208 25.1377L30.4326 25.1964L30.4437 25.2552L30.4543 25.3144L30.4643 25.3737L30.4737 25.4331L30.4824 25.4928L30.4905 25.5526L30.498 25.6126L30.5049 25.6728L30.5112 25.7331L30.5168 25.7935L30.5218 25.8541L30.5262 25.9149L30.5299 25.9757L30.533 26.0367L30.5354 26.0978L30.5373 26.159L30.5384 26.2203L30.539 26.2817L30.5388 26.3431L30.5381 26.4047L30.5367 26.4664L30.5346 26.5281L30.5319 26.5899L30.5285 26.6517L30.5245 26.7136L30.5198 26.7755L30.5144 26.8375L30.5084 26.8995L30.5018 26.9615L30.4944 27.0235L30.4864 27.0856L30.4778 27.1477L30.4685 27.2097L30.4585 27.2717L30.4478 27.3337L30.4365 27.3957L30.4245 27.4577L30.4119 27.5196L30.3985 27.5815L30.3845 27.6433L30.3699 27.7051L30.3545 27.7668L30.3385 27.8285L30.3219 27.89L30.3045 27.9515L30.2865 28.0128L30.2678 28.0741L30.2485 28.1353L30.2285 28.1963L30.2078 28.2573L30.1865 28.3181L30.1644 28.3787L30.1417 28.4393L30.1184 28.4996L30.0944 28.5599L30.0697 28.6199L30.0444 28.6798L30.0184 28.7395L29.9917 28.7991L29.9644 28.8584L29.9364 28.9175L29.9077 28.9765L29.8785 29.0352L29.8485 29.0937L29.8179 29.152L29.7866 29.21L29.7547 29.2678L29.7222 29.3254L29.689 29.3827L29.6551 29.4398L29.6207 29.4965L29.5855 29.5531L29.5498 29.6093L29.5134 29.6652L29.4763 29.7209L29.4387 29.7762L29.4004 29.8313L29.3615 29.886L29.3219 29.9404L29.2818 29.9945L29.241 30.0482L29.1996 30.1016L29.1576 30.1547L29.115 30.2074L29.0718 30.2597L29.028 30.3117L28.9836 30.3633L28.9385 30.4145L28.8929 30.4653L28.8467 30.5158L28.7999 30.5658L28.7526 30.6154L28.7046 30.6647L28.6561 30.7135L28.607 30.7618L28.5574 30.8098L28.5071 30.8573L28.4563 30.9043L28.405 30.9509L28.3531 30.9971L28.3007 31.0428L28.2477 31.088L28.1942 31.1327L28.1401 31.177L28.0855 31.2208L28.0304 31.264L27.9748 31.3068L27.9187 31.3491L27.862 31.3909L27.8049 31.4321L27.7472 31.4728L27.6891 31.5131L27.6304 31.5527L27.5713 31.5919L27.5117 31.6304L27.4516 31.6685L27.391 31.706L27.33 31.7429L27.2685 31.7792L27.2066 31.815L27.1442 31.8502L27.0813 31.8848L27.0181 31.9189L26.9544 31.9523L26.8903 31.9852L26.8257 32.0174L26.7608 32.0491L26.6954 32.0801L26.6296 32.1105L26.5635 32.1403L26.4969 32.1694L26.43 32.198L26.3627 32.2259L26.295 32.2531L26.2269 32.2797L26.1585 32.3057L26.0897 32.331L26.0206 32.3557L25.9512 32.3797L25.8814 32.403L25.8113 32.4257L25.7409 32.4476L25.6702 32.4689L25.5991 32.4896L25.5278 32.5095L25.4562 32.5288L25.3843 32.5473L25.3121 32.5652L25.2396 32.5823L25.1669 32.5988L25.0939 32.6145L25.0207 32.6296L24.9472 32.6439L24.8735 32.6575L24.7996 32.6704L24.7254 32.6826L24.6511 32.694L24.5765 32.7047L24.5018 32.7147L24.4268 32.724L24.3517 32.7325L24.2764 32.7402L24.2009 32.7473L24.1253 32.7535L24.0495 32.7591L23.9735 32.7638L23.8975 32.7679L23.8213 32.7712L23.745 32.7737L23.6685 32.7754L23.592 32.7764L23.5154 32.7767L23.4387 32.7762L23.3619 32.7749L23.285 32.7728L23.2081 32.77L23.1311 32.7664L23.054 32.762L22.9769 32.7569L22.8998 32.751L22.8227 32.7443L22.7455 32.7368L22.6684 32.7286L22.5912 32.7195L22.5141 32.7097L22.4369 32.6991L22.3598 32.6878L22.2827 32.6756L22.2057 32.6627L22.1287 32.649L22.0518 32.6345L21.9749 32.6193L21.8981 32.6032L21.8214 32.5864L21.7448 32.5687L21.6683 32.5503L21.5918 32.5312L21.5155 32.5112L21.4394 32.4904L21.3633 32.4689L21.2875 32.4466L21.2117 32.4235L21.1361 32.3996L21.0607 32.375L20.9854 32.3496L20.9104 32.3234L20.8355 32.2964L20.7608 32.2686L20.6864 32.2401L20.6121 32.2108L20.5381 32.1807L20.4643 32.1499L20.3908 32.1183L20.3175 32.0859L20.2444 32.0528L20.1717 32.0189L20.0991 31.9842L20.0269 31.9488L19.955 31.9126L19.8834 31.8757L19.8121 31.838L19.7411 31.7996L19.6704 31.7604L19.6001 31.7205L19.53 31.6798L19.4604 31.6384L19.3911 31.5963L19.3222 31.5534L19.2536 31.5098L19.1854 31.4655L19.1176 31.4204L19.0502 31.3746L18.9833 31.3281L18.9167 31.2809L18.8505 31.233L18.7848 31.1843L18.7195 31.135L18.6547 31.085L18.5903 31.0342L18.5264 30.9828L18.4629 30.9307L18.3999 30.8779L18.3374 30.8244L18.2754 30.7702L18.2139 30.7154L18.1529 30.6599L18.0924 30.6037L18.0324 30.5469L17.973 30.4894L17.914 30.4313L17.8557 30.3725L17.7979 30.3131L17.7406 30.253L17.6839 30.1924L17.6278 30.131L17.5723 30.0691L17.5173 30.0066L17.463 29.9434L17.4092 29.8797L17.356 29.8153L17.3035 29.7503L17.2516 29.6848L17.2003 29.6187L17.1496 29.552L17.0996 29.4847L17.0503 29.4169L17.0016 29.3485L16.9535 29.2795L16.9061 29.21L16.8594 29.14L16.8134 29.0694L16.7681 28.9983L16.7234 28.9267L16.6795 28.8546L16.6362 28.7819L16.5937 28.7088L16.5519 28.6351L16.5108 28.561L16.4704 28.4864L16.4308 28.4113L16.3919 28.3357L16.3537 28.2597L16.3163 28.1833L16.2797 28.1063L16.2438 28.029L16.2087 27.9512L16.1744 27.873L16.1408 27.7943L16.108 27.7153L16.076 27.6358L16.0448 27.556L16.0144 27.4757L15.9849 27.3951L15.9561 27.3141L15.9281 27.2328L15.9009 27.1511L15.8746 27.069L15.8491 26.9866L15.8244 26.9039L15.8005 26.8208L15.7775 26.7374L15.7554 26.6537L15.734 26.5697L15.7136 26.4854L15.694 26.4009L15.6752 26.316L15.6573 26.2309L15.6403 26.1455L15.6241 26.0599L15.6088 25.974L15.5944 25.8879L15.5809 25.8016L15.5682 25.715L15.5564 25.6283L15.5456 25.5413L15.5356 25.4542L15.5265 25.3668L15.5183 25.2793L15.511 25.1916L15.5046 25.1038L15.4991 25.0158L15.4945 24.9277L15.4908 24.8395L15.488 24.7511L15.4862 24.6626L15.4853 24.5741L15.4852 24.4854L15.4861 24.3966L15.488 24.3078L15.4907 24.2189L15.4944 24.1299L15.499 24.0409L15.5045 23.9519L15.5109 23.8628L15.5183 23.7737L15.5266 23.6846L15.5358 23.5955L15.546 23.5064L15.5571 23.4173L15.5691 23.3283L15.5821 23.2393L15.596 23.1503L15.6109 23.0614L15.6266 22.9725L15.6433 22.8837L15.661 22.795L15.6796 22.7064L15.6991 22.6179L15.7195 22.5295L15.7409 22.4413L15.7632 22.3531L15.7865 22.2651L15.8107 22.1773L15.8358 22.0896L15.8618 22.002L15.8888 21.9147L15.9167 21.8275L15.9455 21.7405L15.9753 21.6538L16.006 21.5672L16.0376 21.4809L16.0701 21.3948L16.1036 21.309L16.138 21.2234L16.1733 21.138L16.2095 21.053L16.2466 20.9682L16.2847 20.8837L16.3236 20.7995L16.3635 20.7156L16.4042 20.6321L16.4459 20.5488L16.4884 20.4659L16.5319 20.3834L16.5762 20.3012L16.6215 20.2194L16.6676 20.1379L16.7146 20.0568L16.7625 19.9762L16.8113 19.8959L16.8609 19.816L16.9115 19.7366L16.9629 19.6575L17.0151 19.5789L17.0682 19.5008L17.1222 19.4231L17.177 19.3459L17.2327 19.2692L17.2892 19.1929L17.3465 19.1171L17.4047 19.0419L17.4637 18.9671L17.5236 18.8929L17.5843 18.8191L17.6457 18.746L17.708 18.6733L17.7711 18.6012L17.835 18.5297L17.8997 18.4587L17.9652 18.3884L18.0315 18.3186L18.0986 18.2494L18.1664 18.1808L18.235 18.1128L18.3044 18.0454L18.3745 17.9787L18.4454 17.9126L18.517 17.8471L18.5893 17.7823L18.6624 17.7181L18.7363 17.6547L18.8108 17.5918L18.8861 17.5297L18.962 17.4683L19.0387 17.4075L19.116 17.3475L19.1941 17.2882L19.2728 17.2296L19.3522 17.1717L19.4323 17.1146L19.513 17.0582L19.5944 17.0025L19.6765 16.9476L19.7591 16.8935L19.8424 16.8402L19.9264 16.7876L20.0109 16.7358L20.0961 16.6848L20.1818 16.6346L20.2682 16.5852L20.3551 16.5366L20.4426 16.4888L20.5307 16.4419L20.6193 16.3958L20.7085 16.3505L20.7982 16.3061L20.8885 16.2625L20.9793 16.2198L21.0706 16.1779L21.1624 16.1369L21.2547 16.0968L21.3476 16.0575L21.4409 16.0191L21.5346 15.9817L21.6289 15.9451L21.7236 15.9094L21.8187 15.8746L21.9143 15.8408L22.0104 15.8078L22.1068 15.7758L22.2037 15.7447L22.3009 15.7145L22.3986 15.6853L22.4966 15.657L22.595 15.6297L22.6938 15.6033L22.7929 15.5778L22.8924 15.5533L22.9922 15.5298L23.0924 15.5073L23.1928 15.4857L23.2936 15.4651L23.3946 15.4455L23.4453 15.4361ZM24.6872 22.6964L23.5346 22.9718L23.4669 17.2623L23.4126 17.2745L23.3308 17.2938L23.2491 17.3139L23.168 17.3347L23.087 17.3563L23.0065 17.3787L22.926 17.402L22.8463 17.4258L22.7664 17.4506L22.6875 17.4759L22.6084 17.5022L22.5298 17.5292L22.4516 17.5569L22.3737 17.5853L22.2965 17.6144L22.2194 17.6444L22.1427 17.675L22.0665 17.7063L21.9904 17.7385L21.9153 17.7711L21.8402 17.8047L21.7658 17.8388L21.6915 17.8738L21.6179 17.9093L21.5445 17.9456L21.4719 17.9825L21.3996 18.0201L21.3278 18.0584L21.2565 18.0973L21.1856 18.1369L21.1152 18.1772L21.0456 18.218L20.9759 18.2597L20.9071 18.3018L20.8389 18.3446L20.7711 18.388L20.7037 18.4321L20.637 18.4768L20.5708 18.5221L20.5051 18.5679L20.4401 18.6143L20.3754 18.6614L20.3114 18.7091L20.248 18.7573L20.1851 18.8061L20.1229 18.8553L20.0613 18.9052L20.0001 18.9557L19.9395 19.0068L19.8797 19.0582L19.8204 19.1103L19.7617 19.1628L19.7036 19.2159L19.6461 19.2696L19.5893 19.3237L19.5331 19.3782L19.4774 19.4334L19.4225 19.4889L19.3682 19.545L19.3146 19.6014L19.2614 19.6586L19.2091 19.7159L19.1574 19.7738L19.1063 19.8322L19.056 19.8908L19.0062 19.9501L18.9573 20.0095L18.9088 20.0697L18.8612 20.13L18.8141 20.1909L18.7678 20.2522L18.7222 20.3137L18.6772 20.3756L18.633 20.4379L18.5894 20.5007L18.5465 20.5637L18.5044 20.6272L18.463 20.6908L18.4223 20.7548L18.3822 20.8193L18.343 20.8839L18.3043 20.9491L18.2665 21.0142L18.2293 21.0799L18.1928 21.1458L18.1572 21.2119L18.1222 21.2783L18.088 21.345L18.0544 21.4121L18.0217 21.4791L17.9896 21.5467L17.9583 21.6143L17.9278 21.6822L17.8979 21.7503L17.8688 21.8187L17.8405 21.8871L17.8129 21.9559L17.7861 22.0248L17.7599 22.0939L17.7346 22.163L17.71 22.2325L17.6861 22.3021L17.663 22.3718L17.6406 22.4416L17.619 22.5117L17.5981 22.5818L17.5781 22.6519L17.5587 22.7223L17.54 22.7928L17.5222 22.8633L17.5051 22.9339L17.4887 23.0046L17.4731 23.0754L17.4583 23.1463L17.4442 23.2171L17.4308 23.288L17.4182 23.3591L17.4064 23.43L17.3953 23.501L17.3849 23.5722L17.3753 23.6431L17.3665 23.7143L17.3584 23.7852L17.351 23.8563L17.3444 23.9275L17.3385 23.9984L17.3334 24.0694L17.329 24.1404L17.3253 24.2112L17.3224 24.282L17.3202 24.3527L17.3188 24.4235L17.318 24.4941L17.3181 24.5646L17.3188 24.635L17.3203 24.7054L17.3225 24.7756L17.3254 24.8457L17.329 24.9157L17.3334 24.9855L17.3385 25.0552L17.3443 25.1248L17.3508 25.1942L17.358 25.2636L17.3659 25.3325L17.3745 25.4016L17.3838 25.4702L17.3939 25.5389L17.4046 25.6072L17.416 25.6754L17.4281 25.7435L17.4409 25.8112L17.4544 25.8788L17.4685 25.946L17.4834 26.0132L17.4989 26.08L17.5151 26.1467L17.5319 26.2129L17.5495 26.2792L17.5676 26.3449L17.5864 26.4106L17.6059 26.4758L17.626 26.5409L17.6468 26.6056L17.6682 26.6699L17.6903 26.7342L17.713 26.798L17.7363 26.8614L17.7602 26.9247L17.7848 26.9876L17.81 27.0501L17.8358 27.1123L17.8621 27.1741L17.8892 27.2357L17.9168 27.2969L17.945 27.3577L17.9738 27.4181L18.0031 27.4781L18.0332 27.538L18.0636 27.5972L18.0947 27.6561L18.1264 27.7147L18.1587 27.7728L18.1915 27.8306L18.2248 27.888L18.2587 27.9448L18.2932 28.0014L18.3281 28.0575L18.3636 28.1131L18.3997 28.1684L18.4362 28.2232L18.4733 28.2777L18.5108 28.3314L18.5489 28.385L18.5875 28.438L18.6265 28.4905L18.6662 28.5427L18.7062 28.5943L18.7467 28.6454L18.7877 28.6961L18.8292 28.7464L18.871 28.796L18.9135 28.8453L18.9563 28.8941L18.9995 28.9423L19.0434 28.9901L19.0874 29.0372L19.132 29.0841L19.177 29.1303L19.2223 29.176L19.2682 29.2212L19.3144 29.2659L19.361 29.3101L19.408 29.3537L19.4554 29.3968L19.5032 29.4394L19.5513 29.4814L19.5998 29.5229L19.6486 29.5639L19.6978 29.6043L19.7474 29.6442L19.7974 29.6835L19.8475 29.7222L19.8981 29.7604L19.949 29.7981L20.0002 29.8352L20.0517 29.8717L20.1035 29.9077L20.1556 29.9431L20.208 29.9779L20.2606 30.0121L20.3135 30.0458L20.3669 30.079L20.4203 30.1114L20.474 30.1434L20.5281 30.1748L20.5822 30.2055L20.6366 30.2357L20.6915 30.2654L20.7464 30.2944L20.8015 30.3228L20.8568 30.3506L20.9125 30.3779L20.9681 30.4045L21.0242 30.4306L21.0803 30.4561L21.1365 30.4809L21.1931 30.5052L21.2498 30.5289L21.3065 30.552L21.3635 30.5745L21.4206 30.5963L21.478 30.6176L21.5352 30.6383L21.5929 30.6584L21.6504 30.6778L21.7081 30.6967L21.766 30.715L21.824 30.7327L21.882 30.7497L21.9401 30.7662L21.9984 30.782L22.0567 30.7973L22.115 30.8119L22.1734 30.826L22.2318 30.8394L22.2903 30.8522L22.3489 30.8645L22.4075 30.8761L22.4661 30.8872L22.5247 30.8976L22.5834 30.9075L22.6421 30.9167L22.7008 30.9254L22.7593 30.9334L22.818 30.9408L22.8766 30.9477L22.9353 30.954L22.9939 30.9596L23.0525 30.9647L23.111 30.9692L23.1694 30.9731L23.2279 30.9764L23.2862 30.9791L23.3444 30.9813L23.4028 30.9828L23.4608 30.9838L23.5188 30.9842L23.5768 30.984L23.6346 30.9833L23.6925 30.9819L23.7502 30.98L23.8076 30.9776L23.865 30.9745L23.9225 30.9709L23.9795 30.9667L24.0366 30.962L24.0934 30.9567L24.1502 30.9509L24.2068 30.9444L24.2631 30.9375L24.3195 30.93L24.3755 30.9219L24.4313 30.9133L24.4872 30.9042L24.5427 30.8945L24.598 30.8843L24.6532 30.8735L24.7082 30.8622L24.7628 30.8504L24.8172 30.8381L24.8716 30.8252L24.9257 30.8118L24.9795 30.798L25.0331 30.7836L25.0864 30.7687L25.1397 30.7532L25.1925 30.7373L25.2449 30.7209L25.2975 30.7039L25.3495 30.6865L25.4013 30.6687L25.4528 30.6503L25.504 30.6314L25.5551 30.612L25.6058 30.5922L25.6561 30.5719L25.7062 30.5512L25.756 30.5299L25.8056 30.5082L25.8546 30.4861L25.9036 30.4635L25.9521 30.4405L26.0002 30.417L26.0482 30.3931L26.0956 30.3688L26.1429 30.344L26.1898 30.3187L26.2363 30.2931L26.2824 30.2671L26.3283 30.2406L26.3738 30.2137L26.4188 30.1864L26.4635 30.1587L26.5079 30.1306L26.5519 30.1022L26.5956 30.0733L26.6388 30.0441L26.6817 30.0144L26.7242 29.9844L26.7662 29.9541L26.8079 29.9233L26.8492 29.8922L26.8901 29.8607L26.9306 29.8289L26.9708 29.7967L27.0104 29.7643L27.0497 29.7315L27.0885 29.6983L27.1269 29.6648L27.165 29.631L27.2026 29.5968L27.2398 29.5624L27.2764 29.5277L27.3128 29.4926L27.3487 29.4572L27.3842 29.4216L27.4192 29.3857L27.4537 29.3494L27.4878 29.313L27.5216 29.2761L27.5547 29.2392L27.5876 29.2018L27.6199 29.1642L27.6517 29.1265L27.6833 29.0883L27.7141 29.0501L27.7447 29.0115L27.7748 28.9728L27.8043 28.9338L27.8335 28.8945L27.8621 28.8552L27.8903 28.8154L27.9181 28.7755L27.9453 28.7356L27.9721 28.6952L27.9985 28.6548L28.0242 28.6142L28.0496 28.5734L28.0745 28.5324L28.0989 28.4912L28.1229 28.4499L28.1463 28.4084L28.1693 28.3668L28.1918 28.3249L28.2138 28.2831L28.2353 28.241L28.2564 28.1988L28.277 28.1565L28.2971 28.1139L28.3167 28.0714L28.3358 28.0287L28.3544 27.986L28.3726 27.943L28.3902 27.9001L28.4075 27.8568L28.4241 27.8139L28.4404 27.7703L28.456 27.7274L28.4713 27.6838L28.4861 27.6402L28.5003 27.5968L28.5141 27.5532L28.5274 27.5097L28.5403 27.4657L28.5525 27.4223L28.5645 27.3782L28.5758 27.3348L28.5867 27.2908L28.5971 27.2468L28.607 27.2031L28.6164 27.1595L28.6254 27.1153L28.6339 27.0716L28.6419 27.0275L28.6494 26.9839L28.6565 26.9401L28.6631 26.8962L28.6692 26.8523L28.6748 26.8085L28.68 26.7649L28.6847 26.7214L28.6889 26.6775L28.6927 26.634L28.696 26.5904L28.6988 26.5469L28.7012 26.5035L28.7031 26.4602L28.7045 26.4171L28.7055 26.3737L28.7061 26.3304L28.7062 26.2875L28.7058 26.2446L28.705 26.2018L28.7037 26.1591L28.702 26.1162L28.6998 26.0741L28.6972 26.0311L28.6942 25.9892L28.6907 25.9471L28.6868 25.9047L28.6824 25.8628L28.6777 25.8213L28.6724 25.7792L28.6668 25.738L28.6607 25.6965L28.6543 25.6556L28.6473 25.6143L28.64 25.5733L28.6323 25.5327L28.6242 25.4922L28.6156 25.4516L28.6066 25.4115L28.5973 25.3714L28.5875 25.3316L28.5774 25.2921L28.5667 25.2523L28.5559 25.2133L28.5445 25.1739L28.5328 25.1352L28.5207 25.0965L28.5082 25.0581L28.4953 25.0198L28.482 24.9816L28.4685 24.944L28.4545 24.9065L28.4401 24.8689L28.4254 24.8319L28.4103 24.7947L28.395 24.7584L28.3791 24.7217L28.3631 24.6856L28.3466 24.6498L28.3298 24.614L28.3127 24.5786L28.2952 24.5434L28.2774 24.5084L28.2593 24.4738L28.2408 24.4394L28.2221 24.4053L28.203 24.3714L28.1835 24.3378L28.1639 24.3045L28.1439 24.2715L28.1235 24.2386L28.1029 24.2063L28.082 24.1741L28.0608 24.1422L28.0393 24.1105L28.0176 24.0793L27.9955 24.0482L27.9732 24.0175L27.9506 23.9871L27.9277 23.957L27.9047 23.9272L27.8812 23.8976L27.8576 23.8685L27.8337 23.8396L27.8096 23.811L27.7852 23.7827L27.7607 23.7548L27.7358 23.7272L27.7107 23.6999L27.6854 23.6728L27.6599 23.6462L27.6341 23.6199L27.6081 23.5938L27.582 23.5682L27.5556 23.5429L27.5291 23.5179L27.5021 23.4931L27.4753 23.4688L27.4481 23.4447L27.4208 23.4211L27.3932 23.3977L27.3655 23.3748L27.3376 23.3521L27.3096 23.3298L27.2814 23.3078L27.253 23.2861L27.2245 23.2649L27.1958 23.2439L27.1669 23.2233L27.138 23.2031L27.1089 23.1831L27.0797 23.1636L27.0503 23.1444L27.0207 23.1255L26.9912 23.107L26.9613 23.0888L26.9315 23.071L26.9016 23.0536L26.8715 23.0365L26.8412 23.0197L26.811 23.0033L26.7807 22.9872L26.7502 22.9715L26.7198 22.9562L26.689 22.9411L26.6584 22.9265L26.6276 22.9123L26.5968 22.8983L26.5659 22.8847L26.5348 22.8714L26.504 22.8586L26.4728 22.8461L26.4416 22.8339L26.4105 22.8221L26.3793 22.8106L26.3481 22.7995L26.3168 22.7887L26.2855 22.7782L26.2543 22.7682L26.2229 22.7584L26.1915 22.749L26.1603 22.74L26.1287 22.7313L26.0975 22.723L26.0661 22.715L26.0347 22.7073L26.0033 22.7L25.972 22.693L25.9406 22.6864L25.9093 22.6801L25.8781 22.6741L25.8469 22.6685L25.8155 22.6632L25.7845 22.6583L25.7531 22.6537L25.7222 22.6494L25.691 22.6454L25.66 22.6418L25.6292 22.6385L25.5982 22.6356L25.5674 22.6329L25.5366 22.6306L25.5059 22.6286L25.4752 22.6269L25.4446 22.6256L25.4143 22.6246L25.3838 22.6238L25.3535 22.6234L25.3232 22.6233L25.2931 22.6236L25.263 22.6241L25.2331 22.6249L25.2032 22.6261L25.1736 22.6275L25.1438 22.6293L25.1144 22.6313L25.085 22.6336L25.0557 22.6363L25.0266 22.6392L24.9974 22.6424L24.9686 22.6459L24.9398 22.6497L24.9112 22.6538L24.8826 22.6582L24.8543 22.6628L24.826 22.6677L24.7981 22.6729L24.77 22.6784L24.7423 22.6841L24.7146 22.6901L24.6872 22.6964Z" fill="white"/>
<path d="M111.663 27.5L113.506 22.4443L113.541 23.9318L109.367 13.6875H111.592L114.551 21.2667H113.984L116.864 13.6875H119L113.665 27.5H111.663Z" fill="white"/>
<path d="M103.405 23.5156C102.714 23.5156 102.129 23.3857 101.651 23.126C101.172 22.8604 100.809 22.5092 100.561 22.0724C100.319 21.6356 100.198 21.1545 100.198 20.6291C100.198 20.1687 100.274 19.7555 100.428 19.3896C100.582 19.0177 100.818 18.6989 101.137 18.4333C101.456 18.1618 101.869 17.9404 102.377 17.7693C102.761 17.6453 103.21 17.5331 103.724 17.4328C104.244 17.3324 104.806 17.241 105.408 17.1583C106.017 17.0698 106.652 16.9753 107.313 16.875L106.551 17.3088C106.557 16.6477 106.41 16.1607 106.108 15.8479C105.807 15.5351 105.299 15.3786 104.584 15.3786C104.153 15.3786 103.736 15.479 103.335 15.6797C102.933 15.8804 102.652 16.2257 102.493 16.7156L100.543 16.1047C100.779 15.296 101.228 14.6467 101.89 14.1568C102.558 13.6668 103.456 13.4219 104.584 13.4219C105.435 13.4219 106.182 13.5606 106.826 13.838C107.476 14.1154 107.957 14.5699 108.27 15.2015C108.442 15.538 108.545 15.8833 108.581 16.2375C108.616 16.5857 108.634 16.9665 108.634 17.3797V23.25H106.764V21.1781L107.074 21.5146C106.643 22.2052 106.138 22.7128 105.559 23.0375C104.986 23.3562 104.268 23.5156 103.405 23.5156ZM103.831 21.8156C104.315 21.8156 104.729 21.73 105.071 21.5588C105.414 21.3877 105.686 21.1781 105.887 20.9302C106.093 20.6823 106.232 20.4491 106.303 20.2307C106.415 19.9592 106.477 19.6493 106.489 19.301C106.507 18.9469 106.516 18.6606 106.516 18.4422L107.172 18.637C106.528 18.7373 105.975 18.8259 105.514 18.9026C105.054 18.9793 104.658 19.0531 104.327 19.1239C103.996 19.1889 103.704 19.2627 103.45 19.3453C103.202 19.4338 102.992 19.5371 102.821 19.6552C102.649 19.7732 102.516 19.909 102.422 20.0625C102.333 20.216 102.289 20.396 102.289 20.6026C102.289 20.8387 102.348 21.0482 102.466 21.2312C102.584 21.4083 102.756 21.55 102.98 21.6562C103.21 21.7625 103.494 21.8156 103.831 21.8156Z" fill="white"/>
<path d="M89.5483 23.25V10.5H94.6083C95.4708 10.5 96.1768 10.6741 96.7262 11.0224C97.2815 11.3648 97.6921 11.8045 97.958 12.3417C98.2297 12.8788 98.3656 13.4337 98.3656 14.0062C98.3656 14.7087 98.1972 15.3049 97.8605 15.7948C97.5297 16.2847 97.0777 16.6153 96.5047 16.7865V16.3437C97.3081 16.5267 97.9166 16.9075 98.3302 17.4859C98.7496 18.0644 98.9593 18.7226 98.9593 19.4604C98.9593 20.216 98.8146 20.8771 98.5251 21.4437C98.2356 22.0104 97.8044 22.4531 97.2313 22.7719C96.6642 23.0906 95.9612 23.25 95.1223 23.25H89.5483ZM91.7106 21.2401H94.8564C95.2286 21.2401 95.5624 21.1663 95.8578 21.0187C96.1532 20.8653 96.3836 20.6528 96.549 20.3812C96.7203 20.1038 96.806 19.7762 96.806 19.3984C96.806 19.0561 96.7321 18.7491 96.5844 18.4776C96.4367 18.2061 96.2211 17.9906 95.9375 17.8312C95.654 17.666 95.3143 17.5833 94.9185 17.5833H91.7106V21.2401ZM91.7106 15.5911H94.5817C94.8889 15.5911 95.1636 15.5321 95.4058 15.4141C95.6481 15.296 95.8401 15.1219 95.9818 14.8917C96.1236 14.6615 96.1945 14.3781 96.1945 14.0417C96.1945 13.599 96.0527 13.23 95.7692 12.9349C95.4856 12.6398 95.0898 12.4922 94.5817 12.4922H91.7106V15.5911Z" fill="white"/>
<path d="M87.4904 23.25C86.8582 23.3681 86.2379 23.4182 85.6294 23.4005C85.0268 23.3887 84.4863 23.2795 84.0078 23.0729C83.5292 22.8604 83.1659 22.5269 82.9178 22.0724C82.6992 21.6592 82.584 21.2372 82.5722 20.8062C82.5604 20.3753 82.5545 19.8884 82.5545 19.3453V11.0312H84.6812V19.2214C84.6812 19.605 84.6842 19.9415 84.6901 20.2307C84.7019 20.52 84.7639 20.7561 84.8762 20.9391C85.0889 21.2932 85.4286 21.491 85.8953 21.5323C86.362 21.5736 86.8937 21.55 87.4904 21.4615V23.25ZM80.8176 15.3609V13.6875H87.4904V15.3609H80.8176Z" fill="white"/>
<path d="M74.3456 23.5156C73.6544 23.5156 73.0695 23.3857 72.591 23.126C72.1124 22.8604 71.7491 22.5092 71.501 22.0724C71.2588 21.6356 71.1377 21.1545 71.1377 20.6291C71.1377 20.1687 71.2145 19.7555 71.3681 19.3896C71.5217 19.0177 71.758 18.6989 72.077 18.4333C72.396 18.1618 72.8096 17.9404 73.3176 17.7693C73.7016 17.6453 74.1506 17.5331 74.6646 17.4328C75.1845 17.3324 75.7457 17.241 76.3483 17.1583C76.9568 17.0698 77.5919 16.9753 78.2535 16.875L77.4914 17.3088C77.4973 16.6477 77.3496 16.1607 77.0483 15.8479C76.7471 15.5351 76.239 15.3786 75.5242 15.3786C75.0929 15.3786 74.6764 15.479 74.2747 15.6797C73.8729 15.8804 73.5923 16.2257 73.4328 16.7156L71.4833 16.1047C71.7196 15.296 72.1686 14.6467 72.8302 14.1568C73.4978 13.6668 74.3958 13.4219 75.5242 13.4219C76.3749 13.4219 77.1222 13.5606 77.7661 13.838C78.416 14.1154 78.8975 14.5699 79.2106 15.2015C79.3819 15.538 79.4853 15.8833 79.5207 16.2375C79.5562 16.5857 79.5739 16.9665 79.5739 17.3797V23.25H77.7041V21.1781L78.0143 21.5146C77.583 22.2052 77.0779 22.7128 76.4989 23.0375C75.9259 23.3562 75.2081 23.5156 74.3456 23.5156ZM74.7709 21.8156C75.2554 21.8156 75.6689 21.73 76.0115 21.5588C76.3542 21.3877 76.6259 21.1781 76.8268 20.9302C77.0336 20.6823 77.1724 20.4491 77.2433 20.2307C77.3556 19.9592 77.4176 19.6493 77.4294 19.301C77.4471 18.9469 77.456 18.6606 77.456 18.4422L78.1117 18.637C77.4678 18.7373 76.9154 18.8259 76.4546 18.9026C75.9938 18.9793 75.598 19.0531 75.2672 19.1239C74.9363 19.1889 74.6439 19.2627 74.3899 19.3453C74.1417 19.4338 73.932 19.5371 73.7607 19.6552C73.5894 19.7732 73.4564 19.909 73.3619 20.0625C73.2733 20.216 73.229 20.396 73.229 20.6026C73.229 20.8387 73.2881 21.0482 73.4062 21.2312C73.5244 21.4083 73.6957 21.55 73.9202 21.6562C74.1506 21.7625 74.4342 21.8156 74.7709 21.8156Z" fill="white"/>
<path d="M65.5319 23.5156C64.563 23.5156 63.7123 23.3061 62.9797 22.887C62.2472 22.4679 61.6741 21.8864 61.2606 21.1427C60.853 20.3989 60.6491 19.543 60.6491 18.575C60.6491 17.5302 60.85 16.6241 61.2517 15.8568C61.6535 15.0835 62.2117 14.4844 62.9266 14.0594C63.6414 13.6344 64.4685 13.4219 65.4078 13.4219C66.4003 13.4219 67.2422 13.655 67.9334 14.1213C68.6305 14.5818 69.1474 15.234 69.4842 16.0781C69.8209 16.9222 69.9479 17.9168 69.8652 19.062H67.7473V18.2828C67.7414 17.2439 67.5582 16.4854 67.1979 16.0073C66.8375 15.5291 66.2704 15.2901 65.4964 15.2901C64.6221 15.2901 63.9722 15.5616 63.5469 16.1047C63.1215 16.6418 62.9089 17.4298 62.9089 18.4687C62.9089 19.4368 63.1215 20.1864 63.5469 20.7177C63.9722 21.2489 64.5926 21.5146 65.4078 21.5146C65.9336 21.5146 66.3856 21.3995 66.7636 21.1693C67.1476 20.9331 67.443 20.5937 67.6498 20.151L69.7589 20.7885C69.3926 21.6503 68.8254 22.3203 68.0574 22.7984C67.2953 23.2765 66.4535 23.5156 65.5319 23.5156ZM62.2354 19.062V17.4505H68.8195V19.062H62.2354Z" fill="white"/>
<path d="M50 23.25V10.5H55.06C55.9225 10.5 56.6285 10.6741 57.1779 11.0224C57.7332 11.3648 58.1438 11.8045 58.4097 12.3417C58.6814 12.8788 58.8173 13.4337 58.8173 14.0062C58.8173 14.7087 58.6489 15.3049 58.3122 15.7948C57.9813 16.2847 57.5294 16.6153 56.9564 16.7865V16.3437C57.7598 16.5267 58.3683 16.9075 58.7818 17.4859C59.2013 18.0644 59.411 18.7226 59.411 19.4604C59.411 20.216 59.2663 20.8771 58.9768 21.4437C58.6873 22.0104 58.2561 22.4531 57.683 22.7719C57.1159 23.0906 56.4128 23.25 55.5739 23.25H50ZM52.1622 21.2401H55.3081C55.6803 21.2401 56.0141 21.1663 56.3095 21.0187C56.6048 20.8653 56.8352 20.6528 57.0007 20.3812C57.172 20.1038 57.2576 19.7762 57.2576 19.3984C57.2576 19.0561 57.1838 18.7491 57.0361 18.4776C56.8884 18.2061 56.6728 17.9906 56.3892 17.8312C56.1056 17.666 55.7659 17.5833 55.3701 17.5833H52.1622V21.2401ZM52.1622 15.5911H55.0334C55.3406 15.5911 55.6153 15.5321 55.8575 15.4141C56.0997 15.296 56.2917 15.1219 56.4335 14.8917C56.5753 14.6615 56.6462 14.3781 56.6462 14.0417C56.6462 13.599 56.5044 13.23 56.2208 12.9349C55.9373 12.6398 55.5415 12.4922 55.0334 12.4922H52.1622V15.5911Z" fill="white"/>
<path d="M117.812 37.3421V33.8895C117.812 33.5 117.722 33.1965 117.541 32.9789C117.36 32.7579 117.115 32.6474 116.806 32.6474C116.616 32.6474 116.445 32.6947 116.294 32.7895C116.142 32.8807 116.023 33.0175 115.934 33.2C115.845 33.3789 115.801 33.593 115.801 33.8421L115.273 33.5105C115.27 33.1175 115.352 32.7719 115.52 32.4737C115.691 32.1719 115.921 31.9368 116.21 31.7684C116.499 31.6 116.821 31.5158 117.176 31.5158C117.764 31.5158 118.215 31.7053 118.527 32.0842C118.842 32.4596 119 32.9544 119 33.5684V37.3421H117.812ZM111.408 37.3421V31.6579H112.458V33.421H112.606V37.3421H111.408ZM114.618 37.3421V33.9053C114.618 33.5088 114.527 33.2 114.346 32.9789C114.166 32.7579 113.919 32.6474 113.607 32.6474C113.305 32.6474 113.062 32.7579 112.877 32.9789C112.697 33.2 112.606 33.4877 112.606 33.8421L112.074 33.4632C112.074 33.0947 112.159 32.7632 112.33 32.4684C112.501 32.1737 112.731 31.9421 113.02 31.7737C113.313 31.6017 113.64 31.5158 114.001 31.5158C114.399 31.5158 114.731 31.607 114.997 31.7895C115.267 31.9684 115.467 32.214 115.599 32.5263C115.733 32.8351 115.801 33.1842 115.801 33.5737V37.3421H114.618Z" fill="#949494"/>
<path d="M107.675 37.5C107.143 37.5 106.678 37.3719 106.28 37.1158C105.882 36.8596 105.573 36.507 105.353 36.0579C105.136 35.6053 105.028 35.086 105.028 34.5C105.028 33.9035 105.14 33.3807 105.363 32.9316C105.587 32.4825 105.897 32.1316 106.295 31.8789C106.692 31.6263 107.153 31.5 107.675 31.5C108.211 31.5 108.677 31.6281 109.075 31.8842C109.473 32.1404 109.782 32.4947 110.002 32.9474C110.222 33.3965 110.332 33.914 110.332 34.5C110.332 35.0895 110.22 35.6105 109.997 36.0632C109.777 36.5123 109.468 36.8649 109.07 37.1211C108.673 37.3737 108.208 37.5 107.675 37.5ZM107.675 36.3105C108.148 36.3105 108.5 36.1421 108.73 35.8053C108.96 35.4684 109.075 35.0333 109.075 34.5C109.075 33.9491 108.958 33.5105 108.725 33.1842C108.492 32.8544 108.142 32.6895 107.675 32.6895C107.356 32.6895 107.093 32.7667 106.886 32.9211C106.683 33.0719 106.531 33.2842 106.433 33.5579C106.334 33.8281 106.285 34.1421 106.285 34.5C106.285 35.0509 106.402 35.4912 106.635 35.8211C106.872 36.1474 107.218 36.3105 107.675 36.3105Z" fill="#949494"/>
<path d="M102.109 37.5C101.56 37.5 101.092 37.3702 100.704 37.1105C100.316 36.8474 100.019 36.4895 99.812 36.0368C99.6082 35.5842 99.5047 35.0719 99.5014 34.5C99.5047 33.9175 99.6115 33.4018 99.8218 32.9526C100.035 32.5 100.338 32.1456 100.729 31.8895C101.12 31.6298 101.585 31.5 102.124 31.5C102.729 31.5 103.24 31.6632 103.657 31.9895C104.078 32.3123 104.352 32.7544 104.48 33.3158L103.297 33.6579C103.205 33.3526 103.052 33.1158 102.839 32.9474C102.625 32.7754 102.382 32.6895 102.109 32.6895C101.8 32.6895 101.546 32.7684 101.345 32.9263C101.145 33.0807 100.997 33.2947 100.901 33.5684C100.806 33.8421 100.758 34.1526 100.758 34.5C100.758 35.0404 100.872 35.4772 101.099 35.8105C101.325 36.1439 101.662 36.3105 102.109 36.3105C102.425 36.3105 102.673 36.2333 102.854 36.0789C103.038 35.9246 103.176 35.7018 103.268 35.4105L104.48 35.7C104.316 36.2789 104.028 36.7246 103.618 37.0368C103.207 37.3456 102.704 37.5 102.109 37.5Z" fill="#949494"/>
<path d="M97 37.3421V36.0421H98.2176V37.3421H97Z" fill="#949494"/>
</svg>
