<svg width="24" height="24" viewBox="0 0 24 24" fill="none" xmlns="http://www.w3.org/2000/svg">
<path opacity="0.4" d="M11.97 22C17.4928 22 21.97 17.5228 21.97 12C21.97 6.47715 17.4928 2 11.97 2C6.44715 2 1.97 6.47715 1.97 12C1.97 17.5228 6.44715 22 11.97 22Z" fill="#292D32"/>
<path d="M14.97 10.23L12.07 8.56C11.35 8.14 10.48 8.14 9.75999 8.56C9.03999 8.98 8.60999 9.72 8.60999 10.56V13.91C8.60999 14.74 9.03999 15.49 9.75999 15.91C10.12 16.12 10.52 16.22 10.91 16.22C11.31 16.22 11.7 16.12 12.06 15.91L14.96 14.24C15.68 13.82 16.11 13.08 16.11 12.24C16.13 11.4 15.7 10.65 14.97 10.23Z" fill="#292D32"/>
</svg>
