<svg width="24" height="24" viewBox="0 0 24 24" fill="none" xmlns="http://www.w3.org/2000/svg">
<path d="M3.91 17.18C3.72 17.18 3.53 17.11 3.38 16.96C2.01 15.58 1.25 13.76 1.25 11.83C1.25 7.82 4.5 4.55998 8.5 4.55998L14.57 4.58L13.48 3.53997C13.18 3.24997 13.17 2.77997 13.46 2.47997C13.75 2.17997 14.22 2.17001 14.52 2.46001L16.96 4.79997C17.18 5.00997 17.25 5.33998 17.14 5.61998C17.03 5.89998 16.75 6.09001 16.44 6.09001L8.48999 6.06999C5.31999 6.06999 2.73999 8.66001 2.73999 11.84C2.73999 13.37 3.33999 14.82 4.42999 15.91C4.71999 16.2 4.71999 16.68 4.42999 16.97C4.28999 17.11 4.1 17.18 3.91 17.18Z" fill="white"/>
<path d="M10 21.75C9.81003 21.75 9.63004 21.6799 9.48004 21.5399L7.04004 19.2C6.82004 18.99 6.75002 18.66 6.86002 18.38C6.98002 18.1 7.26003 17.9499 7.56003 17.9099L15.51 17.93C18.68 17.93 21.26 15.3399 21.26 12.1599C21.26 10.6299 20.66 9.18 19.57 8.09C19.28 7.8 19.28 7.32 19.57 7.03C19.86 6.74 20.34 6.74 20.63 7.03C22 8.41 22.76 10.2299 22.76 12.1599C22.76 16.1699 19.51 19.43 15.51 19.43L9.44003 19.4099L10.53 20.45C10.83 20.74 10.84 21.21 10.55 21.51C10.39 21.67 10.2 21.75 10 21.75Z" fill="white"/>
<g opacity="0.4">
<path d="M12.25 15.42C11.84 15.42 11.5 15.08 11.5 14.67V11.28L11.31 11.49C11.03 11.8 10.56 11.82 10.25 11.55C9.94 11.28 9.92 10.8 10.19 10.49L11.69 8.82002C11.9 8.59002 12.23 8.51001 12.52 8.62001C12.81 8.73001 13 9.01002 13 9.32002V14.67C13 15.09 12.66 15.42 12.25 15.42Z" fill="white"/>
</g>
</svg>
