<svg width="20" height="20" viewBox="0 0 20 20" fill="none" xmlns="http://www.w3.org/2000/svg">
<path d="M17 13.6083C16.7666 14.2333 16.275 14.7083 15.6333 14.925C14.7333 15.225 13.8083 15.45 12.875 15.6083C12.7833 15.625 12.6916 15.6417 12.6 15.65C12.45 15.675 12.3 15.6917 12.15 15.7083C11.9666 15.7333 11.775 15.75 11.5833 15.7667C11.0583 15.8083 10.5416 15.8333 10.0166 15.8333C9.4833 15.8333 8.94997 15.8083 8.42496 15.7583C8.19997 15.7417 7.9833 15.7167 7.76663 15.6833C7.64163 15.6667 7.51663 15.65 7.39997 15.6333C7.3083 15.6167 7.21663 15.6083 7.12497 15.5917C6.19997 15.4417 5.2833 15.2167 4.39163 14.9167C3.72497 14.6917 3.21663 14.2167 2.99163 13.6083C2.76663 13.0083 2.84997 12.3083 3.2083 11.7083L4.14997 10.1417C4.34997 9.8 4.5333 9.14167 4.5333 8.74167V7.19167C4.5333 4.16667 6.99163 1.70833 10.0166 1.70833C13.0333 1.70833 15.4916 4.16667 15.4916 7.19167V8.74167C15.4916 9.14167 15.675 9.8 15.8833 10.1417L16.825 11.7083C17.1666 12.2917 17.2333 12.975 17 13.6083Z" fill="white"/>
<path opacity="0.4" d="M10 8.96667C9.65003 8.96667 9.3667 8.68334 9.3667 8.33334V5.75C9.3667 5.4 9.65003 5.11667 10 5.11667C10.35 5.11667 10.6334 5.4 10.6334 5.75V8.33334C10.625 8.68334 10.3417 8.96667 10 8.96667Z" fill="#121212"/>
<path opacity="0.4" d="M12.3584 16.675C12.0084 17.6417 11.0834 18.3333 10 18.3333C9.34169 18.3333 8.69169 18.0667 8.23336 17.5917C7.96669 17.3417 7.76669 17.0083 7.65002 16.6667C7.75836 16.6833 7.86669 16.6917 7.98336 16.7083C8.17502 16.7333 8.37502 16.7583 8.57502 16.775C9.05002 16.8167 9.53336 16.8417 10.0167 16.8417C10.4917 16.8417 10.9667 16.8167 11.4334 16.775C11.6084 16.7583 11.7834 16.75 11.95 16.725C12.0834 16.7083 12.2167 16.6917 12.3584 16.675Z" fill="white"/>
</svg>
